<?xml version="1.0" standalone="no"?>
<!DOCTYPE svg PUBLIC "-//W3C//DTD SVG 20010904//EN"
 "http://www.w3.org/TR/2001/REC-SVG-20010904/DTD/svg10.dtd">
<svg version="1.0" xmlns="http://www.w3.org/2000/svg"
 width="500.000000pt" height="500.000000pt" viewBox="0 0 500.000000 500.000000"
 preserveAspectRatio="xMidYMid meet">
<metadata>
Created by potrace 1.14, written by Peter Selinger 2001-2017
</metadata>
<g transform="translate(0.000000,500.000000) scale(0.100000,-0.100000)"
fill="#000000" stroke="none">
<path d="M2652 4856 c-63 -54 -198 -116 -250 -116 -44 0 -18 63 31 75 28 7 35
19 17 30 -14 9 -127 -20 -190 -48 -59 -27 -152 -101 -185 -148 -12 -17 -39
-36 -65 -45 -25 -9 -64 -23 -88 -31 -49 -17 -71 -50 -69 -106 1 -24 -5 -41
-16 -50 -20 -14 -35 -39 -71 -114 l-25 -51 -40 9 c-21 5 -70 20 -108 35 -153
58 -272 80 -288 54 -4 -6 4 -19 17 -30 34 -28 12 -24 -26 5 -52 40 -104 56
-195 62 -97 6 -178 -10 -261 -52 -56 -28 -72 -62 -21 -42 53 20 111 -27 63
-51 -9 -5 -55 -19 -102 -32 -66 -17 -103 -21 -167 -18 -74 4 -83 3 -83 -13 0
-26 48 -59 86 -59 35 0 41 -9 24 -40 -19 -36 -75 -61 -137 -61 -63 0 -113 -15
-113 -33 0 -19 38 -74 60 -86 11 -6 40 -15 63 -19 39 -6 42 -9 40 -36 -3 -42
-31 -75 -98 -115 -74 -45 -83 -68 -53 -129 25 -51 49 -59 58 -22 7 31 23 36
44 16 22 -23 20 -42 -9 -70 -32 -33 -83 -33 -153 0 -30 14 -58 22 -63 19 -18
-11 -8 -33 27 -62 l35 -29 -42 -61 c-40 -57 -41 -63 -29 -91 14 -34 67 -86 99
-96 12 -3 21 -9 21 -13 0 -4 -27 -20 -60 -37 -58 -28 -110 -68 -110 -83 1 -4
14 -23 30 -42 46 -53 43 -59 -40 -75 -49 -10 -52 -13 -34 -41 20 -30 53 -31
113 -4 57 26 61 26 61 -13 0 -41 -29 -82 -101 -141 -121 -100 -152 -174 -110
-262 24 -50 102 -108 137 -101 27 5 29 -1 12 -38 -12 -26 -33 -35 -89 -38 -18
-1 -34 -7 -36 -14 -7 -19 37 -51 78 -58 22 -4 39 -12 39 -20 0 -7 -14 -30 -31
-51 -86 -107 -100 -158 -62 -230 34 -66 72 -70 73 -7 0 30 39 42 57 17 29 -39
12 -76 -54 -115 -45 -26 -44 -50 1 -42 28 4 35 2 40 -14 10 -33 -3 -51 -60
-84 -70 -40 -104 -84 -104 -135 0 -56 47 -142 97 -180 l42 -32 -36 -32 c-32
-29 -41 -32 -79 -26 -31 4 -45 1 -55 -10 -10 -13 -5 -22 33 -59 46 -44 96 -65
156 -65 48 0 39 -34 -29 -105 -50 -52 -82 -125 -70 -157 21 -54 63 -72 113
-47 47 24 48 24 48 -6 0 -35 -26 -85 -57 -112 -15 -12 -23 -27 -20 -35 7 -20
66 -21 118 -3 51 18 46 19 59 -5 17 -31 -6 -102 -46 -141 -39 -38 -41 -46 -17
-65 42 -32 104 -11 166 55 40 42 45 43 91 9 17 -13 13 -18 -55 -64 -175 -117
-359 -291 -441 -418 l-39 -61 763 -3 c420 -1 768 0 774 2 19 7 153 229 170
282 20 59 67 123 112 155 38 26 77 77 67 87 -4 4 -13 -2 -21 -12 -7 -11 -16
-18 -18 -15 -5 5 -24 202 -31 334 -6 103 -12 176 -21 255 -11 89 -22 302 -18
328 2 15 7 42 10 60 8 53 74 107 203 168 63 30 116 54 118 54 2 0 -25 -28 -61
-63 -60 -57 -66 -66 -65 -102 l1 -40 11 42 c10 34 24 51 77 91 36 26 115 85
175 130 61 45 115 86 120 90 39 31 157 102 169 102 9 0 23 -15 31 -33 10 -21
14 -24 11 -9 -2 12 -1 22 3 22 25 0 262 -199 314 -262 37 -46 81 -127 74 -135
-7 -6 -174 105 -243 162 -77 63 -100 65 -247 20 -67 -20 -149 -48 -182 -62
-57 -24 -125 -83 -125 -107 1 -6 13 3 28 20 15 17 47 42 72 54 58 30 280 101
291 94 5 -3 9 -20 9 -39 0 -19 4 -36 9 -40 6 -3 8 9 4 29 -3 19 -2 43 2 53 6
15 10 12 20 -17 13 -35 13 -35 14 -7 1 37 21 31 43 -14 15 -29 17 -31 18 -11
0 23 0 23 46 -9 57 -39 47 -49 -49 -49 -53 0 -95 -9 -190 -41 -147 -49 -193
-72 -208 -102 -6 -12 -23 -32 -38 -44 -14 -12 -21 -22 -14 -23 6 0 15 5 18 10
9 14 25 12 20 -2 -2 -7 -6 -46 -9 -86 -5 -68 -9 -78 -51 -134 -25 -33 -45 -63
-45 -67 0 -20 63 -91 85 -97 29 -7 29 -7 10 -45 -15 -28 -14 -32 5 -59 12 -17
25 -30 29 -30 23 0 105 31 122 46 17 16 19 16 25 0 4 -10 4 -113 1 -229 -4
-183 -9 -225 -30 -309 -29 -111 -75 -217 -118 -271 -29 -36 -59 -95 -59 -117
0 -6 27 -10 65 -10 l65 0 0 89 c0 87 5 121 19 121 3 0 6 -47 6 -105 l0 -105
175 0 175 0 18 58 18 57 -25 74 c-24 68 -26 88 -25 238 0 89 3 163 6 163 3 0
21 -14 41 -31 46 -41 109 -68 148 -65 63 5 119 69 125 141 3 34 -7 147 -26
300 l-5 40 17 -24 c38 -52 52 -66 59 -58 4 4 -3 18 -15 31 -30 32 -91 174 -91
214 0 29 -3 32 -32 32 -66 0 -195 52 -226 90 l-19 24 -29 -28 c-38 -37 -107
-68 -131 -59 -21 8 -52 43 -53 59 0 7 21 17 47 23 32 9 58 24 85 53 21 22 38
46 38 53 0 11 29 24 53 25 4 0 5 -11 1 -24 -3 -13 -1 -27 5 -30 7 -4 11 1 11
13 0 48 5 50 100 30 48 -10 118 -28 155 -40 54 -17 65 -24 59 -38 -4 -9 -9
-29 -11 -46 l-5 -30 19 34 c10 19 24 37 32 39 11 4 10 -1 -2 -19 -23 -32 -21
-49 3 -21 10 12 21 18 24 13 3 -5 -1 -14 -9 -21 -8 -7 -15 -17 -15 -23 0 -5 8
-3 18 6 18 16 20 13 47 -78 20 -69 34 -99 51 -110 37 -24 48 -17 22 14 -27 31
-35 51 -68 159 -25 80 -53 111 -117 133 -20 6 -42 16 -47 21 -6 5 -51 34 -101
64 -49 31 -103 72 -118 92 l-28 37 27 7 c36 10 84 -15 85 -45 1 -17 2 -18 6
-4 6 22 7 22 58 -13 24 -16 47 -30 50 -30 4 0 56 -30 117 -66 71 -43 112 -75
118 -90 7 -17 17 -24 35 -24 16 0 42 -16 74 -47 41 -40 50 -56 56 -97 7 -44 1
-68 -53 -230 -76 -227 -93 -294 -136 -536 -19 -107 -39 -215 -45 -240 -7 -32
-7 -63 2 -108 l12 -62 867 0 868 0 0 95 0 94 -43 29 c-69 46 -130 81 -312 177
-60 31 -143 75 -183 97 l-73 40 40 39 c50 48 86 117 101 195 l12 61 36 -13
c20 -6 49 -10 64 -8 33 4 86 41 93 65 5 14 13 16 38 12 24 -4 46 3 90 28 66
39 74 59 21 59 -68 0 -124 85 -124 188 0 39 2 42 19 32 25 -13 87 -13 112 0
18 10 14 17 -50 90 -75 85 -89 117 -98 222 -8 98 -2 105 50 52 78 -78 92 -62
101 109 4 70 9 134 12 141 3 8 -27 50 -70 97 -42 46 -76 87 -76 90 0 3 14 6
30 6 34 0 73 25 103 65 32 43 11 52 -38 17 -41 -30 -44 -30 -68 -14 -30 19
-45 54 -51 117 -6 62 18 97 53 79 13 -7 25 -10 28 -7 12 12 -22 88 -48 111
l-28 23 28 12 c68 28 95 99 33 85 -35 -7 -62 19 -92 89 -53 125 -45 168 50
257 66 61 76 94 43 149 -15 26 -15 30 0 63 10 19 17 39 17 44 0 6 -48 13 -106
16 -88 6 -113 11 -152 34 -51 29 -132 101 -132 118 0 6 17 9 43 7 54 -4 97 12
97 36 0 10 -19 39 -42 63 -24 25 -67 73 -96 107 -51 60 -55 62 -100 62 -26 0
-78 3 -115 7 l-68 6 21 23 c26 27 41 85 31 121 -11 42 -28 38 -34 -9 -7 -52
-30 -71 -76 -64 -53 8 -66 26 -51 71 15 46 7 125 -16 160 -15 23 -74 63 -74
51 0 -13 -62 19 -71 36 -10 19 -12 19 -30 2 -38 -34 -209 5 -217 51 -5 21 14
35 48 35 14 0 40 9 58 20 25 15 32 27 32 50 0 34 -4 35 -51 16 -82 -33 -81
-33 -78 21 1 27 0 54 -4 60 -12 19 -80 24 -139 9 -32 -7 -58 -11 -58 -7 0 3 9
29 20 57 15 41 17 59 9 88 -12 42 -35 61 -100 77 -27 7 -49 15 -49 18 0 4 4
21 10 40 9 34 -1 71 -20 71 -5 0 -22 -24 -39 -53 -38 -67 -60 -86 -103 -93
-39 -7 -68 14 -68 47 0 27 28 36 44 14 8 -11 20 -16 30 -12 14 5 16 14 10 44
-9 49 -29 89 -49 96 -8 4 -51 4 -95 0 -76 -6 -81 -5 -115 21 l-36 28 39 42
c49 53 57 76 42 121 -14 43 -42 46 -91 10 -59 -43 -111 -63 -151 -58 -51 7
-65 26 -33 43 38 20 61 121 28 120 -4 -1 -37 -25 -71 -54z m58 -1 c-7 -8 -9
-15 -5 -15 4 0 2 -7 -5 -15 -7 -8 -17 -12 -22 -9 -5 3 1 17 13 30 25 26 39 33
19 9z m-53 -48 c0 -8 -6 -14 -14 -14 -9 0 -10 4 -2 14 6 7 12 13 14 13 1 0 2
-6 2 -13z m282 -20 c0 -8 -2 -8 -6 1 -4 9 -15 6 -41 -13 l-37 -26 34 30 c33
29 52 32 50 8z m-585 -2 c-4 -8 -12 -15 -20 -15 -20 0 -17 18 4 23 9 3 18 5
19 6 1 0 0 -6 -3 -14z m266 0 c0 -6 -56 -35 -67 -35 -4 1 8 9 27 20 39 22 40
22 40 15z m-310 -14 c0 -5 -14 -15 -32 -22 -18 -7 -47 -26 -65 -42 -18 -16
-33 -26 -33 -21 0 4 -10 -1 -22 -12 -13 -11 -10 -5 6 13 16 18 32 30 36 28 5
-3 10 2 13 10 3 8 23 23 44 34 43 23 53 25 53 12z m353 -50 c-4 -6 -43 30 -43
40 0 5 10 -2 23 -14 13 -12 22 -24 20 -26z m173 14 c-11 -8 -25 -15 -30 -15
-6 1 0 7 14 15 32 19 40 18 16 0z m-486 1 c0 -2 -7 -7 -16 -10 -8 -3 -12 -2
-9 4 6 10 25 14 25 6z m-65 -25 c-3 -6 -12 -11 -20 -11 -7 0 -30 -19 -50 -42
-21 -24 -32 -33 -26 -21 12 24 92 95 99 89 2 -3 1 -9 -3 -15z m615 -26 c-31
-32 -39 -35 -84 -33 l-51 2 51 3 c41 3 57 10 79 33 16 17 31 30 34 30 3 0 -10
-16 -29 -35z m-587 10 c-3 -9 -8 -14 -10 -11 -3 3 -2 9 2 15 9 16 15 13 8 -4z
m110 8 c-7 -2 -21 -2 -30 0 -10 3 -4 5 12 5 17 0 24 -2 18 -5z m-282 -102
c-20 -38 -37 -68 -39 -66 -6 6 63 135 73 135 1 0 -14 -31 -34 -69z m-11 55 c0
-2 -7 -7 -16 -10 -8 -3 -12 -2 -9 4 6 10 25 14 25 6z m607 -12 c-3 -3 -12 -4
-19 -1 -8 3 -5 6 6 6 11 1 17 -2 13 -5z m-490 -36 c-3 -7 -5 -2 -5 12 0 14 2
19 5 13 2 -7 2 -19 0 -25z m40 10 c-3 -8 -6 -5 -6 6 -1 11 2 17 5 13 3 -3 4
-12 1 -19z m373 -1 c0 -2 -10 -12 -22 -23 l-23 -19 19 23 c18 21 26 27 26 19z
m128 -4 c-10 -2 -26 -2 -35 0 -10 3 -2 5 17 5 19 0 27 -2 18 -5z m97 -21 c34
-30 25 -27 -19 6 -16 12 -25 22 -20 22 5 0 23 -13 39 -28z m-830 -2 c-3 -5
-12 -10 -18 -10 -7 0 -6 4 3 10 19 12 23 12 15 0z m635 6 c0 -2 -12 -11 -27
-20 l-28 -17 24 20 c23 21 31 25 31 17z m45 -18 c-11 -6 -27 -16 -35 -22 -9
-6 -5 -1 8 12 13 12 28 22 35 22 7 0 3 -6 -8 -12z m-715 -2 c0 -3 -17 -10 -37
-17 -21 -6 -44 -16 -52 -22 -7 -6 -20 -12 -28 -13 -11 -2 -12 1 -2 12 6 7 15
11 20 8 5 -3 9 -1 9 4 0 5 17 13 38 19 46 13 52 14 52 9z m830 -16 c11 -7 6
-8 -17 -4 -23 5 -41 1 -59 -11 -15 -9 -23 -12 -20 -6 14 22 -14 10 -40 -16
l-26 -28 17 27 c17 27 41 42 55 33 5 -3 11 -1 15 5 8 13 55 13 75 0z m278 -12
c7 -7 12 -16 12 -22 0 -5 -6 -3 -12 6 -7 9 -22 18 -33 21 -20 5 -20 5 1 6 11
0 25 -4 32 -11z m-100 -5 c-10 -2 -26 -2 -35 0 -10 3 -2 5 17 5 19 0 27 -2 18
-5z m-1029 -6 c-2 -2 -17 -11 -34 -21 l-30 -17 24 20 c13 12 28 21 34 21 6 0
8 -1 6 -3z m839 -14 c-10 -2 -26 -2 -35 0 -10 3 -2 5 17 5 19 0 27 -2 18 -5z
m-105 -18 c-3 -9 -8 -14 -10 -11 -3 3 -2 9 2 15 9 16 15 13 8 -4z m28 -18
c-13 -12 -20 -15 -16 -7 14 26 28 41 33 35 3 -3 -5 -16 -17 -28z m-863 -50 c2
-37 -1 -48 -8 -37 -5 8 -10 38 -10 65 0 66 16 41 18 -28z m1222 59 c0 -2 -7
-7 -16 -10 -8 -3 -12 -2 -9 4 6 10 25 14 25 6z m-1107 -21 c-3 -9 -8 -14 -10
-11 -3 3 -2 9 2 15 9 16 15 13 8 -4z m770 -10 c-3 -9 -8 -14 -10 -11 -3 3 -2
9 2 15 9 16 15 13 8 -4z m506 -27 c-13 -24 -31 -42 -64 -59 -11 -6 -3 3 17 20
20 17 40 41 43 52 4 11 9 18 12 16 2 -3 -1 -16 -8 -29z m-1292 -10 c-3 -8 -6
-5 -6 6 -1 11 2 17 5 13 3 -3 4 -12 1 -19z m-40 -25 c-3 -10 -5 -4 -5 12 0 17
2 24 5 18 2 -7 2 -21 0 -30z m-20 -15 c-3 -7 -5 -2 -5 12 0 14 2 19 5 13 2 -7
2 -19 0 -25z m120 0 c-3 -8 -6 -5 -6 6 -1 11 2 17 5 13 3 -3 4 -12 1 -19z
m515 -15 c-20 -21 -38 -44 -40 -52 -2 -8 -7 -40 -12 -70 l-9 -56 3 68 c4 64 6
72 42 108 21 21 41 39 45 39 4 0 -9 -17 -29 -37z m-712 23 c0 -2 -8 -10 -17
-17 -16 -13 -17 -12 -4 4 13 16 21 21 21 13z m156 -22 c-5 -18 -3 -24 5 -18 8
5 9 3 4 -6 -6 -10 -11 -9 -22 5 -7 11 -13 24 -13 29 0 6 5 4 10 -4 8 -13 10
-12 10 3 0 9 3 17 6 17 3 0 3 -12 0 -26z m1344 6 c0 -5 6 -8 13 -6 6 1 8 1 4
-2 -4 -2 -2 -11 5 -20 7 -10 -1 -6 -17 8 -17 14 -32 26 -34 28 -2 1 3 2 12 2
10 0 17 -4 17 -10z m-750 -4 c0 -2 -8 -10 -17 -17 -16 -13 -17 -12 -4 4 13 16
21 21 21 13z m505 -14 c-3 -3 -11 0 -18 7 -9 10 -8 11 6 5 10 -3 15 -9 12 -12z
m315 -11 c5 -11 9 -35 9 -53 -1 -30 -2 -29 -9 10 -3 24 -13 48 -21 53 -9 6
-10 9 -2 9 7 0 17 -9 23 -19z m-2417 -12 c-35 -4 -67 -10 -72 -14 -5 -3 -12
-1 -15 4 -7 11 29 18 99 18 49 0 49 0 -12 -8z m126 7 c-12 -10 -60 -16 -54 -6
3 5 18 10 32 10 15 0 24 -2 22 -4z m58 -12 c-3 -3 -12 -4 -19 -1 -8 3 -5 6 6
6 11 1 17 -2 13 -5z m-282 -14 c3 -6 -1 -7 -9 -4 -18 7 -21 14 -7 14 6 0 13
-4 16 -10z m475 6 c0 -2 -7 -6 -15 -10 -8 -3 -15 -1 -15 4 0 6 7 10 15 10 8 0
15 -2 15 -4z m-200 -26 c22 -11 40 -23 40 -25 0 -5 -79 32 -89 41 -11 10 14 2
49 -16z m65 10 c3 -6 -1 -7 -9 -4 -18 7 -21 14 -7 14 6 0 13 -4 16 -10z m182
4 c-3 -3 -12 -4 -19 -1 -8 3 -5 6 6 6 11 1 17 -2 13 -5z m1871 -25 c-3 -8 -7
-3 -11 10 -4 17 -3 21 5 13 5 -5 8 -16 6 -23z m-2266 14 c-23 -4 -23 -5 -5
-19 17 -14 17 -15 -2 -5 -49 25 -51 31 -10 29 24 0 31 -2 17 -5z m933 -3 c3
-6 -1 -7 -9 -4 -18 7 -21 14 -7 14 6 0 13 -4 16 -10z m-636 -47 c2 -2 0 -3 -5
-3 -5 0 -22 12 -39 26 l-30 26 35 -23 c19 -12 37 -24 39 -26z m38 25 c-3 -8
-6 -5 -6 6 -1 11 2 17 5 13 3 -3 4 -12 1 -19z m1050 -10 c-3 -7 -5 -2 -5 12 0
14 2 19 5 13 2 -7 2 -19 0 -25z m840 0 c-3 -7 -5 -2 -5 12 0 14 2 19 5 13 2
-7 2 -19 0 -25z m-790 -25 c-3 -10 -5 -2 -5 17 0 19 2 27 5 18 2 -10 2 -26 0
-35z m750 15 c-3 -7 -5 -2 -5 12 0 14 2 19 5 13 2 -7 2 -19 0 -25z m-2027 -3
c28 -14 50 -28 50 -30 0 -5 -99 42 -109 51 -12 11 15 1 59 -21z m781 8 c13
-16 12 -17 -3 -4 -10 7 -18 15 -18 17 0 8 8 3 21 -13z m-900 -10 c13 -16 12
-17 -3 -4 -10 7 -18 15 -18 17 0 8 8 3 21 -13z m199 -9 c0 -2 -9 0 -20 6 -11
6 -20 13 -20 16 0 2 9 0 20 -6 11 -6 20 -13 20 -16z m310 16 c8 -5 11 -10 5
-10 -5 0 -17 5 -25 10 -8 5 -10 10 -5 10 6 0 17 -5 25 -10z m-525 -42 c19 -22
19 -22 -10 2 -48 40 -51 43 -30 32 11 -6 29 -21 40 -34z m371 -40 c8 -16 13
-28 11 -28 -5 0 -67 100 -67 108 0 8 35 -42 56 -80z m1874 67 c0 -8 -4 -15
-10 -15 -5 0 -7 7 -4 15 4 8 8 15 10 15 2 0 4 -7 4 -15z m57 -7 c-3 -8 -6 -5
-6 6 -1 11 2 17 5 13 3 -3 4 -12 1 -19z m-2002 -18 c10 -11 16 -20 13 -20 -3
0 -13 9 -23 20 -10 11 -16 20 -13 20 3 0 13 -9 23 -20z m332 4 c-3 -3 -12 -4
-19 -1 -8 3 -5 6 6 6 11 1 17 -2 13 -5z m1704 -18 c5 3 4 -7 -3 -21 -7 -15
-14 -22 -16 -16 -2 6 -9 8 -14 5 -7 -4 -8 -2 -4 5 4 6 12 8 18 5 6 -4 8 2 4
17 -3 13 -3 18 0 11 3 -6 10 -10 15 -6z m-1594 -2 c-3 -3 -12 -4 -19 -1 -8 3
-5 6 6 6 11 1 17 -2 13 -5z m20 -36 c-3 -7 -5 -2 -5 12 0 14 2 19 5 13 2 -7 2
-19 0 -25z m1509 4 c-17 -16 -18 -16 -5 5 7 12 15 20 18 17 3 -2 -3 -12 -13
-22z m-1936 -2 c6 -11 8 -20 6 -20 -3 0 -10 9 -16 20 -6 11 -8 20 -6 20 3 0
10 -9 16 -20z m507 -12 c-3 -7 -5 -2 -5 12 0 14 2 19 5 13 2 -7 2 -19 0 -25z
m63 29 c0 -2 -12 -14 -27 -28 l-28 -24 24 28 c23 25 31 32 31 24z m587 -34
c-3 -10 -5 -4 -5 12 0 17 2 24 5 18 2 -7 2 -21 0 -30z m-1770 21 c-3 -3 -12
-4 -19 -1 -8 3 -5 6 6 6 11 1 17 -2 13 -5z m2811 -1 c-10 -2 -28 -2 -40 0 -13
2 -5 4 17 4 22 1 32 -1 23 -4z m-2900 -19 c-12 -11 -116 -13 -131 -2 -15 11
-4 12 59 10 41 -2 74 -5 72 -8z m2825 9 c-7 -2 -21 -2 -30 0 -10 3 -4 5 12 5
17 0 24 -2 18 -5z m-1656 -25 c-3 -8 -6 -5 -6 6 -1 11 2 17 5 13 3 -3 4 -12 1
-19z m101 2 c-7 -10 -14 -17 -17 -15 -4 4 18 35 25 35 2 0 -1 -9 -8 -20z
m1639 -47 c-3 -10 -5 -4 -5 12 0 17 2 24 5 18 2 -7 2 -21 0 -30z m-2917 -16
c0 -2 -15 -16 -32 -33 l-33 -29 29 33 c28 30 36 37 36 29z m3036 -12 c-11 -8
-27 -15 -35 -15 -10 1 -7 6 9 15 33 19 50 18 26 0z m-65 -23 c-7 -2 -18 1 -23
6 -8 8 -4 9 13 5 13 -4 18 -8 10 -11z m-69 -32 c-23 -16 -45 -30 -49 -30 -10
0 70 59 81 60 5 0 -10 -13 -32 -30z m-2977 0 c-3 -5 -12 -10 -18 -10 -7 0 -6
4 3 10 19 12 23 12 15 0z m2820 -20 c3 -6 -1 -7 -9 -4 -18 7 -21 14 -7 14 6 0
13 -4 16 -10z m-2905 -6 c-34 -7 -110 -9 -110 -2 0 5 28 7 63 7 34 -1 55 -3
47 -5z m150 -8 c0 -2 -7 -7 -16 -10 -8 -3 -12 -2 -9 4 6 10 25 14 25 6z m1487
-18 c-3 -8 -6 -5 -6 6 -1 11 2 17 5 13 3 -3 4 -12 1 -19z m90 0 c-3 -8 -6 -5
-6 6 -1 11 2 17 5 13 3 -3 4 -12 1 -19z m1226 -43 c5 -9 7 -19 4 -22 -3 -2 -8
4 -11 15 -4 11 -17 23 -29 26 -12 3 -31 12 -42 21 -14 11 -7 10 24 -4 24 -11
48 -27 54 -36z m122 35 c10 -11 16 -20 13 -20 -3 0 -13 9 -23 20 -10 11 -16
20 -13 20 3 0 13 -9 23 -20z m-2965 6 c0 -2 -17 -16 -37 -31 l-38 -26 35 30
c34 31 40 35 40 27z m30 -27 l-25 -20 25 7 c28 7 27 5 -15 -21 -25 -15 -28
-16 -16 -2 20 25 1 21 -27 -5 -14 -13 -22 -17 -18 -10 9 14 85 72 95 72 3 0
-5 -10 -19 -21z m-200 1 c8 -5 11 -10 5 -10 -5 0 -17 5 -25 10 -8 5 -10 10 -5
10 6 0 17 -5 25 -10z m78 -17 c-10 -2 -28 -2 -40 0 -13 2 -5 4 17 4 22 1 32
-1 23 -4z m3149 -9 c-3 -3 -12 -4 -19 -1 -8 3 -5 6 6 6 11 1 17 -2 13 -5z
m-2976 -19 c-24 -7 -55 -24 -68 -37 -16 -14 -24 -18 -21 -8 5 18 85 60 113 59
11 0 0 -6 -24 -14z m393 -30 l27 -40 -30 35 c-17 19 -31 39 -31 44 0 5 1 7 3
5 2 -2 15 -22 31 -44z m2672 33 c-30 -5 -53 -5 -58 0 -6 6 12 10 49 10 l58 -1
-49 -9z m109 -6 c11 -4 21 -13 23 -20 2 -10 -4 -10 -25 1 -16 8 -35 17 -43 20
-22 8 20 7 45 -1z m-3130 -12 c3 -6 -1 -7 -9 -4 -18 7 -21 14 -7 14 6 0 13 -4
16 -10z m315 -15 c13 -14 21 -25 18 -25 -2 0 -15 11 -28 25 -13 14 -21 25 -18
25 2 0 15 -11 28 -25z m2417 3 c-3 -8 -6 -5 -6 6 -1 11 2 17 5 13 3 -3 4 -12
1 -19z m475 -10 c13 -13 17 -18 8 -12 -8 6 -24 16 -35 22 -11 6 -15 12 -8 12
7 0 22 -10 35 -22z m-2952 2 c0 -5 3 -9 8 -8 13 4 53 -23 47 -33 -4 -5 -2 -9
4 -9 6 0 15 -10 21 -22 9 -20 9 -21 -2 -7 -7 8 -35 32 -61 52 -27 20 -41 37
-33 37 9 0 16 -4 16 -10z m2803 3 c-13 -2 -35 -2 -50 0 -16 2 -5 4 22 4 28 0
40 -2 28 -4z m-3057 -19 c18 -14 18 -15 -5 -4 -13 7 -36 10 -52 8 -15 -3 -26
-1 -23 4 9 14 59 9 80 -8z m1081 10 c-3 -3 -12 -4 -19 -1 -8 3 -5 6 6 6 11 1
17 -2 13 -5z m1890 0 c-3 -3 -12 -4 -19 -1 -8 3 -5 6 6 6 11 1 17 -2 13 -5z
m-2780 -10 c-3 -3 -12 -4 -19 -1 -8 3 -5 6 6 6 11 1 17 -2 13 -5z m946 -1 c-7
-2 -19 -2 -25 0 -7 3 -2 5 12 5 14 0 19 -2 13 -5z m1534 -25 c-3 -7 -5 -2 -5
12 0 14 2 19 5 13 2 -7 2 -19 0 -25z m70 -5 c-3 -10 -5 -4 -5 12 0 17 2 24 5
18 2 -7 2 -21 0 -30z m419 -7 c9 -19 10 -25 2 -15 -7 9 -20 14 -28 12 -13 -4
-13 -3 0 6 13 9 12 12 -5 26 -17 13 -17 14 -2 9 10 -4 25 -21 33 -38z m-3270
6 c-17 -16 -18 -16 -5 5 7 12 15 20 18 17 3 -2 -3 -12 -13 -22z m366 2 c35
-25 54 -45 26 -28 -41 25 -80 54 -72 54 4 0 25 -12 46 -26z m117 -18 c-3 -3
-11 5 -18 17 -13 21 -12 21 5 5 10 -10 16 -20 13 -22z m2338 -13 c-3 -10 -5
-2 -5 17 0 19 2 27 5 18 2 -10 2 -26 0 -35z m361 40 c-10 -2 -28 -2 -40 0 -13
2 -5 4 17 4 22 1 32 -1 23 -4z m-431 -65 c-2 -13 -4 -3 -4 22 0 25 2 35 4 23
2 -13 2 -33 0 -45z m266 55 c-7 -2 -19 -2 -25 0 -7 3 -2 5 12 5 14 0 19 -2 13
-5z m-346 -25 c-3 -8 -6 -5 -6 6 -1 11 2 17 5 13 3 -3 4 -12 1 -19z m-2757 -2
c0 -2 -8 -10 -17 -17 -16 -13 -17 -12 -4 4 13 16 21 21 21 13z m3143 -3 c-7
-2 -21 -2 -30 0 -10 3 -4 5 12 5 17 0 24 -2 18 -5z m80 0 c-7 -2 -21 -2 -30 0
-10 3 -4 5 12 5 17 0 24 -2 18 -5z m224 -60 c-2 -16 -4 -5 -4 22 0 28 2 40 4
28 2 -13 2 -35 0 -50z m-3487 33 c0 -2 -8 -10 -17 -17 -16 -13 -17 -12 -4 4
13 16 21 21 21 13z m3153 -3 c-7 -2 -19 -2 -25 0 -7 3 -2 5 12 5 14 0 19 -2
13 -5z m-1755 -10 c-10 -2 -28 -2 -40 0 -13 2 -5 4 17 4 22 1 32 -1 23 -4z
m1512 -12 c0 -6 -11 -23 -25 -38 l-26 -28 23 37 c25 40 28 43 28 29z m37 -13
c-3 -8 -6 -5 -6 6 -1 11 2 17 5 13 3 -3 4 -12 1 -19z m513 -17 c-1 -13 -3 -13
-15 3 -19 26 -19 42 0 26 8 -7 15 -20 15 -29z m-3500 24 c0 -2 -13 -11 -29
-20 -19 -10 -31 -24 -34 -42 l-4 -28 -2 28 c-1 21 6 32 32 47 35 21 37 22 37
15z m660 -30 c0 -5 -5 -3 -10 5 -5 8 -10 20 -10 25 0 6 5 3 10 -5 5 -8 10 -19
10 -25z m2240 10 c-7 -8 -16 -15 -21 -15 -5 0 -1 8 9 18 20 22 31 19 12 -3z
m580 -43 c0 -4 -9 7 -20 23 -11 17 -20 35 -20 40 0 6 9 -5 20 -23 11 -18 20
-36 20 -40z m-2137 41 c-7 -2 -19 -2 -25 0 -7 3 -2 5 12 5 14 0 19 -2 13 -5z
m1668 -20 c-12 -20 -14 -14 -5 12 4 9 9 14 11 11 3 -2 0 -13 -6 -23z m-2377 1
c3 -8 2 -12 -4 -9 -6 3 -10 10 -10 16 0 14 7 11 14 -7z m2327 -37 c-10 -9 -11
-8 -5 6 3 10 9 15 12 12 3 -3 0 -11 -7 -18z m490 5 c-7 -2 -18 1 -23 6 -8 8
-4 9 13 5 13 -4 18 -8 10 -11z m35 -20 c-17 -16 -18 -16 -5 5 7 12 15 20 18
17 3 -2 -3 -12 -13 -22z m-3473 11 c-7 -2 -19 -2 -25 0 -7 3 -2 5 12 5 14 0
19 -2 13 -5z m3410 -62 c-2 -3 -18 10 -36 29 l-32 34 36 -30 c20 -16 34 -31
32 -33z m140 16 c-3 -5 -9 -3 -14 4 -6 11 -12 10 -28 -5 -11 -10 -26 -16 -33
-13 -9 4 -8 6 3 6 26 1 41 25 26 40 -6 7 2 4 20 -5 17 -10 29 -22 26 -27z
m-150 -47 c-2 -2 -23 16 -46 40 l-42 44 46 -40 c25 -21 44 -41 42 -44z m-1436
33 c-3 -10 -5 -4 -5 12 0 17 2 24 5 18 2 -7 2 -21 0 -30z m-1910 -5 c-3 -8 -6
-5 -6 6 -1 11 2 17 5 13 3 -3 4 -12 1 -19z m3576 7 c-1 -5 -7 -11 -15 -13 -9
-3 -9 -1 1 6 12 8 8 12 -17 16 l-32 6 33 -2 c17 -2 31 -7 30 -13z m-1766 -17
c-3 -8 -6 -5 -6 6 -1 11 2 17 5 13 3 -3 4 -12 1 -19z m1733 -13 c0 -2 -10 -9
-22 -15 -22 -11 -22 -10 -4 4 21 17 26 19 26 11z m-1607 -20 c-3 -9 -8 -14
-10 -11 -3 3 -2 9 2 15 9 16 15 13 8 -4z m1475 8 c-10 -2 -26 -2 -35 0 -10 3
-2 5 17 5 19 0 27 -2 18 -5z m-1431 -25 c-3 -8 -6 -5 -6 6 -1 11 2 17 5 13 3
-3 4 -12 1 -19z m1476 5 c-7 -2 -19 -2 -25 0 -7 3 -2 5 12 5 14 0 19 -2 13 -5z
m94 -8 c0 -9 -5 -14 -11 -12 -6 2 -17 -2 -24 -10 -8 -7 -18 -10 -23 -7 -6 3 5
14 23 24 18 11 33 19 34 19 0 1 1 -6 1 -14z m82 11 c-11 -9 -69 -15 -64 -6 3
6 20 10 37 10 17 0 29 -2 27 -4z m171 -16 c0 -6 -11 -8 -27 -4 -40 10 -41 14
-5 14 18 0 32 -5 32 -10z m-3981 -26 c14 -12 -19 -1 -35 12 -18 14 -18 14 6 3
14 -6 27 -13 29 -15z m117 11 c-11 -8 -25 -15 -30 -15 -6 1 0 7 14 15 32 19
40 18 16 0z m1904 11 c0 -2 -8 -10 -17 -17 -16 -13 -17 -12 -4 4 13 16 21 21
21 13z m71 -23 c-12 -20 -14 -14 -5 12 4 9 9 14 11 11 3 -2 0 -13 -6 -23z
m1924 7 c10 -11 16 -20 13 -20 -3 0 -13 9 -23 20 -10 11 -16 20 -13 20 3 0 13
-9 23 -20z m-1868 -27 c-3 -10 -5 -4 -5 12 0 17 2 24 5 18 2 -7 2 -21 0 -30z
m1480 31 c-3 -3 -12 -4 -19 -1 -8 3 -5 6 6 6 11 1 17 -2 13 -5z m236 -1 c-7
-2 -21 -2 -30 0 -10 3 -4 5 12 5 17 0 24 -2 18 -5z m-1666 -25 c-3 -8 -6 -5
-6 6 -1 11 2 17 5 13 3 -3 4 -12 1 -19z m344 5 c13 -16 12 -17 -3 -4 -10 7
-18 15 -18 17 0 8 8 3 21 -13z m1249 13 c0 -2 -9 -6 -20 -9 -11 -3 -18 -1 -14
4 5 9 34 13 34 5z m-3753 -12 c-3 -3 -12 -4 -19 -1 -8 3 -5 6 6 6 11 1 17 -2
13 -5z m2260 -16 c-3 -8 -6 -5 -6 6 -1 11 2 17 5 13 3 -3 4 -12 1 -19z m1433
12 c-8 -5 -19 -10 -25 -10 -5 0 -3 5 5 10 8 5 20 10 25 10 6 0 3 -5 -5 -10z
m113 3 c-7 -2 -19 -2 -25 0 -7 3 -2 5 12 5 14 0 19 -2 13 -5z m-1784 -53 c-13
-22 -31 -48 -41 -57 -10 -9 -2 9 19 40 43 66 54 74 22 17z m90 -75 c7 -16 20
-38 29 -49 21 -24 110 -66 140 -66 12 0 22 -4 22 -9 0 -26 381 -44 396 -19 13
20 22 5 18 -29 -3 -21 -6 -56 -7 -77 -2 -39 -3 -40 -57 -52 -30 -7 -69 -13
-87 -14 -18 0 -67 -8 -108 -17 -57 -12 -72 -19 -60 -26 9 -5 38 -6 63 -3 90
12 177 26 218 34 39 8 42 7 63 -24 26 -38 110 -119 131 -126 10 -3 8 -12 -10
-37 -19 -24 -25 -48 -28 -102 -4 -62 -1 -77 27 -133 31 -64 87 -127 131 -149
41 -20 63 -72 64 -147 1 -59 -2 -70 -29 -104 -102 -130 -108 -156 -28 -129 26
9 58 25 70 36 13 11 26 17 30 13 12 -11 -15 -138 -35 -165 -32 -43 -69 -64
-121 -69 -55 -5 -64 -18 -32 -46 30 -27 90 -44 134 -38 l39 5 -15 -29 c-27
-52 -122 -124 -164 -124 -58 0 8 -48 71 -52 38 -3 45 -12 21 -25 -9 -5 -33
-33 -55 -62 -28 -38 -40 -63 -40 -87 l0 -34 -72 47 c-89 58 -85 55 -72 60 6 2
-15 55 -50 126 l-61 122 9 168 c7 142 6 174 -7 207 -11 28 -12 40 -3 44 6 2 3
5 -6 5 -25 1 -44 41 -27 53 11 8 10 9 -3 4 -19 -6 -34 9 -18 19 5 3 10 11 10
17 0 6 -6 6 -15 -2 -20 -17 -32 -5 -15 15 8 10 9 15 1 15 -6 0 -11 7 -11 16 0
14 -2 15 -17 3 -15 -13 -15 -14 0 -17 15 -3 25 -22 12 -22 -4 0 -86 41 -94 47
-3 2 1 9 7 15 19 19 14 33 -6 15 -10 -10 -25 -17 -33 -17 -10 1 -8 5 5 15 11
8 16 18 13 22 -4 3 -19 -4 -34 -18 -20 -18 -25 -20 -20 -6 7 20 -4 22 -21 5
-9 -9 -12 -9 -12 2 0 10 -5 9 -19 -4 -15 -13 -20 -14 -24 -4 -3 9 -9 8 -21 -7
-10 -14 -15 -16 -16 -6 0 11 -5 10 -20 -4 -15 -14 -20 -15 -20 -4 0 8 -10 2
-21 -13 -15 -20 -29 -28 -52 -28 -24 0 -28 3 -17 10 8 5 13 10 10 11 -29 5
-50 4 -50 -4 0 -5 -7 -6 -16 -3 -9 3 -12 2 -9 -5 4 -6 -3 -7 -21 -3 -19 5 -25
4 -20 -5 5 -8 -3 -10 -29 -7 -26 3 -35 1 -32 -8 3 -6 -4 -13 -14 -14 -11 -1
-28 -3 -39 -4 -23 -3 -27 -18 -5 -18 22 0 19 -7 -25 -57 -53 -60 -80 -136 -80
-222 0 -66 11 -147 25 -184 6 -14 -10 -25 -96 -66 -57 -26 -117 -51 -133 -55
-17 -4 -43 -17 -59 -28 l-28 -20 -31 28 c-80 76 -211 305 -299 524 l-38 95 27
22 27 21 -18 34 c-10 19 -45 70 -78 113 -34 44 -72 104 -85 134 -13 30 -31 59
-40 66 -14 10 -9 14 30 29 88 34 144 138 132 247 -5 56 -5 59 17 60 38 2 80 8
94 13 19 8 16 -3 -11 -38 -31 -41 -57 -92 -50 -99 11 -10 68 35 108 84 32 40
52 53 125 82 57 23 110 36 159 40 52 4 81 12 105 29 46 32 84 74 94 105 10 28
23 39 63 47 49 11 137 92 176 163 l38 67 12 -45 c6 -24 17 -57 23 -74z m418
58 c-3 -10 -5 -2 -5 17 0 19 2 27 5 18 2 -10 2 -26 0 -35z m-2590 19 c-10 -10
-17 -24 -17 -31 0 -7 -5 -9 -11 -6 -7 5 -2 16 12 31 26 28 40 33 16 6z m2248
-3 c-5 -14 -3 -19 3 -15 6 3 14 1 18 -5 4 -8 3 -9 -4 -5 -7 4 -12 3 -12 -3 0
-15 60 -81 73 -81 6 0 -5 17 -24 38 l-34 37 38 -34 c24 -23 34 -38 27 -45 -21
-21 -106 86 -94 118 9 24 16 19 9 -5z m191 -2 c17 -9 36 -23 43 -31 11 -13 9
-16 -13 -22 -46 -11 -126 31 -126 67 0 12 64 3 96 -14z m1451 17 c-3 -3 -12
-4 -19 -1 -8 3 -5 6 6 6 11 1 17 -2 13 -5z m-1710 -26 c-3 -8 -6 -5 -6 6 -1
11 2 17 5 13 3 -3 4 -12 1 -19z m336 14 c4 9 6 9 6 1 2 -20 -16 -24 -30 -5
-13 15 -12 16 3 4 13 -10 17 -10 21 0z m1140 1 c-7 -2 -19 -2 -25 0 -7 3 -2 5
12 5 14 0 19 -2 13 -5z m147 3 c0 -2 -7 -7 -16 -10 -8 -3 -12 -2 -9 4 6 10 25
14 25 6z m223 -61 c41 -39 32 -42 -11 -4 -21 19 -47 40 -58 47 -10 7 -5 6 11
-2 17 -8 42 -26 58 -41z m-1804 15 c11 -24 11 -24 -3 -6 -9 11 -16 24 -16 30
0 12 5 7 19 -24z m312 -8 c-6 -11 -20 -22 -31 -25 -11 -3 -18 -1 -14 4 3 5 11
9 19 9 7 0 17 9 20 21 4 11 9 18 12 16 2 -3 0 -14 -6 -25z m-2464 -4 c-3 -8
-6 -5 -6 6 -1 11 2 17 5 13 3 -3 4 -12 1 -19z m2323 -42 c19 -8 29 -15 22 -16
-22 0 -66 27 -92 57 l-25 28 30 -27 c17 -15 46 -34 65 -42z m1257 58 c-3 -3
-12 -4 -19 -1 -8 3 -5 6 6 6 11 1 17 -2 13 -5z m-1071 -22 c-4 -12 4 -28 23
-46 16 -15 32 -28 35 -27 3 0 21 -9 38 -20 28 -17 29 -19 8 -13 -14 3 -27 11
-28 15 -2 5 -7 7 -11 4 -15 -8 -82 71 -75 88 8 23 17 22 10 -1z m1575 -9 c13
-16 12 -17 -3 -4 -10 7 -18 15 -18 17 0 8 8 3 21 -13z m-4060 -20 c13 -16 12
-17 -3 -4 -17 13 -22 21 -14 21 2 0 10 -8 17 -17z m3587 10 c-10 -2 -26 -2
-35 0 -10 3 -2 5 17 5 19 0 27 -2 18 -5z m-1678 -24 c-27 -21 -71 -47 -55 -32
19 18 68 53 74 53 3 0 -5 -9 -19 -21z m263 -38 c-2 -3 -18 10 -36 29 l-32 34
36 -30 c20 -16 34 -31 32 -33z m242 49 c-3 -5 -12 -10 -18 -10 -7 0 -6 4 3 10
19 12 23 12 15 0z m1685 -16 c0 -8 -4 -14 -8 -14 -4 0 -8 9 -8 19 0 11 4 17 8
15 4 -3 8 -12 8 -20z m-1529 -1 c13 -16 12 -17 -3 -4 -17 13 -22 21 -14 21 2
0 10 -8 17 -17z m-2668 -47 c17 -14 29 -26 25 -26 -13 0 -78 62 -78 74 0 6 5
3 10 -6 6 -9 25 -28 43 -42z m2567 34 c10 -18 8 -20 -25 -20 -39 0 -43 6 -17
26 23 18 30 17 42 -6z m1526 2 c-10 -2 -22 0 -28 6 -6 6 0 7 19 4 21 -5 23 -7
9 -10z m-398 1 c-10 -2 -26 -2 -35 0 -10 3 -2 5 17 5 19 0 27 -2 18 -5z
m-2078 -50 c0 -8 -38 17 -51 33 -9 11 -2 9 19 -6 17 -13 32 -25 32 -27z m222
27 c18 -11 29 -20 23 -20 -5 0 -23 9 -40 20 -39 26 -25 26 17 0z m463 11 c3
-5 2 -12 -3 -15 -5 -3 -9 1 -9 9 0 17 3 19 12 6z m570 -14 c-31 -23 -33 -24
-110 -31 l-50 -5 50 10 c28 6 58 10 69 10 10 0 15 3 12 7 -4 3 4 12 16 19 37
20 45 14 13 -10z m212 1 c-3 -8 -6 -5 -6 6 -1 11 2 17 5 13 3 -3 4 -12 1 -19z
m-2993 -17 c-2 -3 -12 3 -22 13 -16 17 -16 18 5 5 12 -7 20 -15 17 -18z m39
22 c-7 -2 -19 -2 -25 0 -7 3 -2 5 12 5 14 0 19 -2 13 -5z m3520 0 c-7 -2 -19
-2 -25 0 -7 3 -2 5 12 5 14 0 19 -2 13 -5z m120 0 c-7 -2 -19 -2 -25 0 -7 3
-2 5 12 5 14 0 19 -2 13 -5z m-2036 -9 c-3 -3 -12 -4 -19 -1 -8 3 -5 6 6 6 11
1 17 -2 13 -5z m198 -4 c-3 -5 -14 -10 -23 -9 -14 0 -13 2 3 9 27 11 27 11 20
0z m425 -6 c0 -2 -12 -4 -26 -4 -14 0 -23 4 -20 9 6 8 46 4 46 -5z m555 6 c-9
-15 -95 -72 -94 -63 0 4 21 22 47 39 54 37 55 37 47 24z m-2834 -43 c-8 -8
-15 -7 -23 1 -7 7 -8 12 -4 12 5 0 2 8 -5 17 -12 14 -10 14 14 -2 20 -12 25
-21 18 -28z m1722 36 c-7 -2 -21 -2 -30 0 -10 3 -4 5 12 5 17 0 24 -2 18 -5z
m604 1 c-3 -3 -12 -4 -19 -1 -8 3 -5 6 6 6 11 1 17 -2 13 -5z m640 -16 c-3 -8
-6 -5 -6 6 -1 11 2 17 5 13 3 -3 4 -12 1 -19z m1014 5 c13 -16 12 -17 -3 -4
-17 13 -22 21 -14 21 2 0 10 -8 17 -17z m-2524 -75 c-2 -18 -4 -6 -4 27 0 33
2 48 4 33 2 -15 2 -42 0 -60z m90 47 c26 -14 67 -31 90 -37 24 -6 43 -14 43
-18 0 -10 -66 -37 -135 -54 -32 -8 -59 -14 -60 -13 -2 7 7 147 10 147 2 0 25
-11 52 -25z m53 5 c8 -5 11 -10 5 -10 -5 0 -17 5 -25 10 -8 5 -10 10 -5 10 6
0 17 -5 25 -10z m77 4 c-3 -3 -12 -4 -19 -1 -8 3 -5 6 6 6 11 1 17 -2 13 -5z
m103 -4 c0 -5 -2 -10 -4 -10 -2 0 -12 -3 -22 -7 -16 -6 -17 -5 -4 10 17 19 30
22 30 7z m1690 6 c0 -2 -8 -10 -17 -17 -16 -13 -17 -12 -4 4 13 16 21 21 21
13z m560 -41 c19 -19 32 -35 29 -35 -3 0 -20 16 -39 35 -19 19 -32 35 -29 35
3 0 20 -16 39 -35z m-2383 19 c-3 -3 -12 -4 -19 -1 -8 3 -5 6 6 6 11 1 17 -2
13 -5z m56 -11 c-7 -2 -19 -2 -25 0 -7 3 -2 5 12 5 14 0 19 -2 13 -5z m-443
-19 c-8 -8 -23 -20 -34 -25 -13 -7 -9 -1 9 15 34 29 43 33 25 10z m-170 -19
c-7 -8 -16 -15 -21 -15 -5 0 -1 8 9 18 20 22 31 19 12 -3z m1647 -7 c-3 -7 -5
-2 -5 12 0 14 2 19 5 13 2 -7 2 -19 0 -25z m-2757 12 c-8 -5 -19 -10 -25 -10
-5 0 -3 5 5 10 8 5 20 10 25 10 6 0 3 -5 -5 -10z m1320 6 c0 -3 -15 -14 -32
-26 l-33 -22 30 26 c31 27 35 29 35 22z m2681 -23 c13 -16 12 -17 -3 -4 -17
13 -22 21 -14 21 2 0 10 -8 17 -17z m-4041 2 c0 -2 -10 -9 -22 -15 -22 -11
-22 -10 -4 4 21 17 26 19 26 11z m3964 -30 l17 -30 -20 24 c-12 13 -21 28 -21
34 0 12 0 11 24 -28z m-2897 19 c-3 -3 -12 -4 -19 -1 -8 3 -5 6 6 6 11 1 17
-2 13 -5z m160 -10 c-3 -3 -12 -4 -19 -1 -8 3 -5 6 6 6 11 1 17 -2 13 -5z
m1570 -26 c-3 -7 -5 -2 -5 12 0 14 2 19 5 13 2 -7 2 -19 0 -25z m1224 15 c13
-16 12 -17 -3 -4 -17 13 -22 21 -14 21 2 0 10 -8 17 -17z m-4086 -5 c-11 -6
-27 -16 -35 -22 -9 -6 -5 -1 8 12 13 12 28 22 35 22 7 0 3 -6 -8 -12z m1105
-4 c0 -2 -7 -4 -15 -4 -8 0 -15 4 -15 10 0 5 7 7 15 4 8 -4 15 -8 15 -10z
m245 6 c-3 -5 -12 -10 -18 -10 -7 0 -6 4 3 10 19 12 23 12 15 0z m2822 4 c-3
-3 -12 -4 -19 -1 -8 3 -5 6 6 6 11 1 17 -2 13 -5z m-2982 -14 c-3 -5 -18 -10
-33 -9 l-27 1 25 8 c35 11 42 11 35 0z m252 -15 c-15 -14 -33 -25 -39 -25 -6
0 4 11 23 24 44 32 51 32 16 1z m124 -4 c-11 -19 -60 -52 -78 -51 -4 1 9 10
29 20 20 11 40 29 43 41 4 11 9 18 12 16 2 -3 0 -15 -6 -26z m2570 1 c-7 -2
-18 1 -23 6 -8 8 -4 9 13 5 13 -4 18 -8 10 -11z m169 8 c8 -5 11 -10 5 -10 -5
0 -17 5 -25 10 -8 5 -10 10 -5 10 6 0 17 -5 25 -10z m-3175 -50 l30 -35 -28
25 c-16 14 -33 34 -39 45 -11 21 -10 20 37 -35z m133 43 c-10 -2 -28 -2 -40 0
-13 2 -5 4 17 4 22 1 32 -1 23 -4z m95 0 c-7 -2 -19 -2 -25 0 -7 3 -2 5 12 5
14 0 19 -2 13 -5z m2667 -18 c13 -14 21 -25 18 -25 -2 0 -15 11 -28 25 -13 14
-21 25 -18 25 2 0 15 -11 28 -25z m-1163 -7 c-3 -8 -6 -5 -6 6 -1 11 2 17 5
13 3 -3 4 -12 1 -19z m1530 16 c-3 -3 -12 -4 -19 -1 -8 3 -5 6 6 6 11 1 17 -2
13 -5z m-72 -14 c-3 -5 -12 -10 -18 -10 -7 0 -6 4 3 10 19 12 23 12 15 0z
m157 -9 c-4 -10 -7 -11 -10 -3 -2 7 -8 10 -12 7 -5 -3 -11 -1 -15 5 -4 6 4 9
18 8 17 -2 23 -7 19 -17z m-4492 -16 c13 -14 21 -25 18 -25 -2 0 -15 11 -28
25 -13 14 -21 25 -18 25 2 0 15 -11 28 -25z m267 3 c-3 -8 -6 -5 -6 6 -1 11 2
17 5 13 3 -3 4 -12 1 -19z m959 -16 c-5 -4 -66 26 -66 33 0 3 16 -3 35 -12 19
-9 33 -18 31 -21z m184 28 c8 -5 11 -10 5 -10 -5 0 -17 5 -25 10 -8 5 -10 10
-5 10 6 0 17 -5 25 -10z m2954 -3 c-2 -7 7 -24 21 -37 14 -13 25 -27 25 -32 0
-5 -14 7 -31 26 -17 20 -28 40 -24 46 9 14 15 12 9 -3z m-3234 -32 c19 -19 32
-35 29 -35 -3 0 -20 16 -39 35 -19 19 -32 35 -29 35 3 0 20 -16 39 -35z m230
25 c19 -12 -52 -12 -90 0 -20 6 -15 8 25 9 28 0 57 -4 65 -9z m2810 6 c0 -2
-9 -6 -20 -9 -11 -3 -18 -1 -14 4 5 9 34 13 34 5z m-1274 -15 c-3 -4 1 -17 9
-27 8 -10 14 -23 15 -29 0 -5 -9 3 -19 19 -18 26 -19 46 -5 46 3 0 3 -4 0 -9z
m-1443 -18 c-7 -2 -19 -2 -25 0 -7 3 -2 5 12 5 14 0 19 -2 13 -5z m2916 -37
c-2 -2 -13 8 -23 22 l-19 27 24 -22 c12 -12 21 -24 18 -27z m98 38 c-3 -4 1
-13 9 -21 8 -9 12 -18 9 -21 -7 -7 -34 31 -29 40 3 5 8 8 11 8 4 0 4 -3 0 -6z
m-4272 -24 c-10 -11 -22 -20 -28 -20 -5 0 1 9 14 20 31 25 37 25 14 0z m1085
10 c-8 -5 -28 -9 -45 -9 l-30 1 30 8 c17 4 37 8 45 9 13 1 13 0 0 -9z m105 0
c-16 -4 -43 -8 -60 -8 -29 1 -29 1 5 8 19 4 46 7 60 8 22 0 22 -1 -5 -8z
m2954 -24 c-3 -3 -11 5 -18 17 -13 21 -12 21 5 5 10 -10 16 -20 13 -22z
m-4095 10 c-6 -15 -47 -46 -61 -46 -4 0 4 8 17 17 14 9 29 23 33 30 11 17 18
17 11 -1z m2727 -3 c13 -16 12 -17 -3 -4 -17 13 -22 21 -14 21 2 0 10 -8 17
-17z m1296 -25 c-3 -8 -6 -5 -6 6 -1 11 2 17 5 13 3 -3 4 -12 1 -19z m-4268
-19 c-19 -10 -45 -18 -59 -17 -20 0 -21 1 -5 5 38 8 75 25 75 35 0 5 5 6 11 2
8 -4 -1 -14 -22 -25z m3261 27 c0 -2 -8 -10 -17 -17 -16 -13 -17 -12 -4 4 13
16 21 21 21 13z m805 -96 c19 -20 45 -33 79 -40 89 -17 93 -19 27 -15 -62 5
-126 31 -122 49 2 5 -3 12 -9 16 -6 4 -13 27 -15 51 l-4 44 8 -38 c4 -21 21
-51 36 -67z m65 75 c14 -19 14 -19 -2 -6 -10 7 -18 18 -18 24 0 6 1 8 3 6 1
-2 9 -13 17 -24z m177 3 c-3 -8 -6 -5 -6 6 -1 11 2 17 5 13 3 -3 4 -12 1 -19z
m-1352 -8 c10 -11 16 -20 13 -20 -3 0 -13 9 -23 20 -10 11 -16 20 -13 20 3 0
13 -9 23 -20z m1422 -2 c-3 -8 -6 -5 -6 6 -1 11 2 17 5 13 3 -3 4 -12 1 -19z
m70 0 c-3 -8 -6 -5 -6 6 -1 11 2 17 5 13 3 -3 4 -12 1 -19z m53 18 c0 -3 -4
-8 -10 -11 -5 -3 -10 -1 -10 4 0 6 5 11 10 11 6 0 10 -2 10 -4z m-4060 -31
c13 -14 21 -25 18 -25 -2 0 -15 11 -28 25 -13 14 -21 25 -18 25 2 0 15 -11 28
-25z m2670 -22 c0 -8 -38 17 -51 33 -9 11 -2 9 19 -6 17 -13 32 -25 32 -27z
m187 25 c-3 -8 -6 -5 -6 6 -1 11 2 17 5 13 3 -3 4 -12 1 -19z m1120 -25 c-3
-10 -5 -2 -5 17 0 19 2 27 5 18 2 -10 2 -26 0 -35z m-1361 5 l29 -33 -32 29
c-31 28 -38 36 -30 36 2 0 16 -15 33 -32z m1059 12 c10 -11 16 -20 13 -20 -3
0 -13 9 -23 20 -10 11 -16 20 -13 20 3 0 13 -9 23 -20z m-4008 -27 c-3 -10 -5
-4 -5 12 0 17 2 24 5 18 2 -7 2 -21 0 -30z m3146 22 c-3 -9 -8 -14 -10 -11 -3
3 -2 9 2 15 9 16 15 13 8 -4z m1024 -17 c-3 -7 -5 -2 -5 12 0 14 2 19 5 13 2
-7 2 -19 0 -25z m-3881 -49 c10 -10 28 -19 39 -22 19 -4 19 -5 -1 -6 -23 -1
-94 69 -94 92 0 6 8 -1 19 -18 10 -16 27 -37 37 -46z m661 34 c-3 -10 -5 -4
-5 12 0 17 2 24 5 18 2 -7 2 -21 0 -30z m1948 17 c10 -11 16 -20 13 -20 -3 0
-13 9 -23 20 -10 11 -16 20 -13 20 3 0 13 -9 23 -20z m1235 4 c-22 -26 -51
-37 -63 -25 -8 8 -4 11 15 11 14 0 31 7 38 15 7 8 15 15 17 15 3 0 0 -7 -7
-16z m207 -6 c-3 -8 -6 -5 -6 6 -1 11 2 17 5 13 3 -3 4 -12 1 -19z m-1230 0
c-6 -4 -29 -6 -50 -6 -22 0 -35 3 -29 7 6 4 29 6 51 6 22 0 35 -3 28 -7z
m1273 -23 c-7 -9 -32 -30 -54 -47 -41 -30 -41 -30 7 16 27 27 44 52 41 59 -5
9 -3 9 6 0 11 -10 11 -15 0 -28z m-4160 5 c6 -11 8 -20 6 -20 -3 0 -10 9 -16
20 -6 11 -8 20 -6 20 3 0 10 -9 16 -20z m687 -12 c-3 -7 -5 -2 -5 12 0 14 2
19 5 13 2 -7 2 -19 0 -25z m3121 1 c37 -7 37 -7 6 -8 -18 0 -40 7 -51 17 -10
9 -13 13 -5 8 7 -5 30 -13 50 -17z m-926 -9 c-18 -17 -40 -30 -50 -30 -10 1
-5 6 13 14 17 7 36 20 44 29 7 10 16 17 20 17 3 0 -9 -14 -27 -30z m1033 11
c-3 -6 -16 -16 -28 -22 -20 -11 -20 -9 3 13 25 24 38 29 25 9z m195 5 c0 -2
-8 -10 -17 -17 -16 -13 -17 -12 -4 4 13 16 21 21 21 13z m-4165 -37 c9 -16 33
-49 53 -72 l36 -42 -35 33 c-33 30 -87 112 -75 112 3 0 13 -14 21 -31z m2963
-4 c-21 -19 -43 -35 -50 -35 -7 0 1 8 17 18 17 11 36 26 44 35 7 10 16 17 20
17 3 0 -11 -16 -31 -35z m-1991 3 c-3 -8 -6 -5 -6 6 -1 11 2 17 5 13 3 -3 4
-12 1 -19z m2793 -3 c13 -14 21 -25 18 -25 -2 0 -15 11 -28 25 -13 14 -21 25
-18 25 2 0 15 -11 28 -25z m-3675 -5 c10 -11 16 -20 13 -20 -3 0 -13 9 -23 20
-10 11 -16 20 -13 20 3 0 13 -9 23 -20z m-308 -28 c-15 -16 -26 -30 -25 -33 2
-2 1 -3 0 -2 -4 2 -48 -34 -76 -63 -38 -37 -54 -62 -48 -70 4 -4 2 -4 -5 0 -7
4 -14 -2 -18 -15 -4 -11 -9 -18 -12 -15 -11 11 31 63 115 143 86 82 121 109
69 55z m3003 11 c0 -3 -6 -3 -14 0 -7 3 -20 0 -27 -6 -11 -10 -11 -9 0 5 11
15 41 15 41 1z m-2074 -8 c-11 -8 -25 -15 -30 -15 -6 1 0 7 14 15 32 19 40 18
16 0z m-601 -49 c6 -4 1 -4 -10 2 -11 6 -29 21 -40 34 -19 22 -19 22 10 -2 17
-14 35 -29 40 -34z m655 50 c0 -2 -8 -10 -17 -17 -16 -13 -17 -12 -4 4 13 16
21 21 21 13z m2060 -6 c8 -5 11 -10 5 -10 -5 0 -17 5 -25 10 -8 5 -10 10 -5
10 6 0 17 -5 25 -10z m63 -7 c-7 -2 -19 -2 -25 0 -7 3 -2 5 12 5 14 0 19 -2
13 -5z m-3083 -13 c-8 -5 -19 -10 -25 -10 -5 0 -3 5 5 10 8 5 20 10 25 10 6 0
3 -5 -5 -10z m897 -16 c-3 -3 -12 -4 -19 -1 -8 3 -5 6 6 6 11 1 17 -2 13 -5z
m144 -27 c-10 -9 -11 -8 -5 6 3 10 9 15 12 12 3 -3 0 -11 -7 -18z m1876 -59
c-2 -18 -4 -6 -4 27 0 33 2 48 4 33 2 -15 2 -42 0 -60z m-2952 50 c-22 -11
-51 -30 -65 -42 l-25 -21 20 24 c20 23 81 60 100 60 6 0 -8 -9 -30 -21z m980
2 c-14 -16 -29 -20 -69 -18 l-51 2 52 3 c29 2 57 10 63 18 7 8 15 15 18 15 3
0 -3 -9 -13 -20z m130 -10 c-8 -26 3 -25 34 2 l26 22 -25 -26 c-14 -15 -32
-28 -40 -30 -8 -2 -18 -7 -21 -11 -3 -4 -23 -10 -45 -12 -37 -4 -37 -4 -7 4
39 10 60 26 68 52 4 10 9 19 11 19 3 0 2 -9 -1 -20z m-755 0 c8 -5 11 -10 5
-10 -5 0 -17 5 -25 10 -8 5 -10 10 -5 10 6 0 17 -5 25 -10z m653 -14 c-10 -13
-20 -22 -22 -20 -4 4 29 44 36 44 2 0 -4 -11 -14 -24z m-906 8 c-3 -3 -12 -4
-19 -1 -8 3 -5 6 6 6 11 1 17 -2 13 -5z m958 -4 c-3 -5 -12 -10 -18 -10 -7 0
-6 4 3 10 19 12 23 12 15 0z m-235 -25 c13 -14 21 -25 18 -25 -2 0 -15 11 -28
25 -13 14 -21 25 -18 25 2 0 15 -11 28 -25z m3487 3 c-3 -8 -6 -5 -6 6 -1 11
2 17 5 13 3 -3 4 -12 1 -19z m-193 -17 c-2 -3 -12 3 -22 13 -16 17 -16 18 5 5
12 -7 20 -15 17 -18z m-4136 -2 c-15 -11 -39 -35 -54 -52 -14 -18 -21 -22 -15
-11 11 22 77 84 89 84 4 0 -5 -10 -20 -21z m940 10 c33 0 34 -1 14 -9 -16 -7
-33 -5 -55 5 -18 9 -24 13 -14 10 10 -3 35 -5 55 -6z m3299 -11 c-3 -8 -6 -5
-6 6 -1 11 2 17 5 13 3 -3 4 -12 1 -19z m-40 -20 c-3 -8 -6 -5 -6 6 -1 11 2
17 5 13 3 -3 4 -12 1 -19z m-3278 -14 c14 -12 -19 -1 -35 12 -18 14 -18 14 6
3 14 -6 27 -13 29 -15z m78 20 c-3 -3 -12 -4 -19 -1 -8 3 -5 6 6 6 11 1 17 -2
13 -5z m2153 -33 c12 -12 10 -11 -9 0 -14 9 -27 22 -29 30 -3 11 -2 11 9 -1 8
-8 21 -21 29 -29z m1157 17 c-3 -8 -6 -5 -6 6 -1 11 2 17 5 13 3 -3 4 -12 1
-19z m-4314 -18 c-15 -16 -30 -30 -32 -30 -5 0 21 33 38 48 26 22 24 13 -6
-18z m2997 -15 c0 -5 -5 -3 -10 5 -5 8 -10 20 -10 25 0 6 5 3 10 -5 5 -8 10
-19 10 -25z m155 -19 c6 -4 1 -4 -10 2 -11 6 -29 21 -40 34 -19 22 -19 22 10
-2 17 -14 35 -29 40 -34z m949 25 c-2 -3 -12 3 -22 13 -16 17 -16 18 5 5 12
-7 20 -15 17 -18z m173 -8 c-3 -10 -5 -4 -5 12 0 17 2 24 5 18 2 -7 2 -21 0
-30z m-4140 21 c-3 -3 -12 -4 -19 -1 -8 3 -5 6 6 6 11 1 17 -2 13 -5z m830 0
c-3 -3 -12 -4 -19 -1 -8 3 -5 6 6 6 11 1 17 -2 13 -5z m2087 -10 c3 -8 2 -12
-4 -9 -6 3 -10 10 -10 16 0 14 7 11 14 -7z m61 -34 l30 -35 -28 25 c-16 14
-33 34 -39 45 -11 21 -10 20 37 -35z m864 20 c11 -24 11 -24 -3 -6 -9 11 -16
24 -16 30 0 12 5 7 19 -24z m91 5 c13 -14 21 -25 18 -25 -2 0 -15 11 -28 25
-13 14 -21 25 -18 25 2 0 15 -11 28 -25z m-2986 -7 c9 -12 16 -27 16 -33 -1
-5 -7 1 -15 15 -7 14 -24 28 -37 31 -22 7 -22 7 -1 8 12 1 29 -9 37 -21z
m2151 12 c-3 -5 -18 -9 -33 -9 l-27 1 30 8 c17 4 31 8 33 9 2 0 0 -3 -3 -9z
m972 -22 c-3 -7 -5 -2 -5 12 0 14 2 19 5 13 2 -7 2 -19 0 -25z m-4177 19 c0
-2 -10 -12 -22 -23 l-23 -19 19 23 c18 21 26 27 26 19z m205 -17 c26 -28 15
-31 -12 -3 -12 13 -19 23 -14 23 4 0 16 -9 26 -20z m3795 -12 c15 -21 17 -28
6 -19 -16 13 -41 51 -33 51 2 0 14 -15 27 -32z m315 -8 c8 0 15 8 15 18 0 14
2 15 10 2 7 -11 4 -17 -10 -24 -23 -10 -50 8 -49 33 0 11 3 9 9 -6 5 -13 16
-23 25 -23z m-4421 15 c3 -8 1 -15 -4 -15 -6 0 -10 7 -10 15 0 8 2 15 4 15 2
0 6 -7 10 -15z m3346 11 c0 -2 -8 -10 -17 -17 -16 -13 -17 -12 -4 4 13 16 21
21 21 13z m1008 -61 c9 -12 5 -8 -10 7 -16 16 -28 36 -27 46 0 12 3 9 10 -8 6
-14 18 -34 27 -45z m-4431 23 c-3 -7 -5 -2 -5 12 0 14 2 19 5 13 2 -7 2 -19 0
-25z m3173 12 c6 -11 8 -20 6 -20 -3 0 -10 9 -16 20 -6 11 -8 20 -6 20 3 0 10
-9 16 -20z m-2843 4 c-3 -3 -12 -4 -19 -1 -8 3 -5 6 6 6 11 1 17 -2 13 -5z
m38 -14 c3 -6 -1 -7 -9 -4 -18 7 -21 14 -7 14 6 0 13 -4 16 -10z m3008 3 c-7
-2 -19 -2 -25 0 -7 3 -2 5 12 5 14 0 19 -2 13 -5z m797 -18 c13 -14 21 -25 18
-25 -2 0 -15 11 -28 25 -13 14 -21 25 -18 25 2 0 15 -11 28 -25z m241 -30 c30
-30 56 -60 57 -67 2 -7 2 -11 0 -8 -2 3 -30 33 -63 68 -72 76 -68 82 6 7z
m-4367 29 c3 -8 2 -12 -4 -9 -6 3 -10 10 -10 16 0 14 7 11 14 -7z m40 0 c3 -8
2 -12 -4 -9 -6 3 -10 10 -10 16 0 14 7 11 14 -7z m885 -10 c14 -12 -19 -1 -35
12 -18 14 -18 14 6 3 14 -6 27 -13 29 -15z m3580 -4 c11 -24 11 -24 -3 -6 -9
11 -16 24 -16 30 0 12 5 7 19 -24z m-3306 -20 c19 -16 36 -27 39 -25 6 6 101
-112 117 -145 l12 -25 -18 24 c-38 50 -149 165 -178 182 -16 11 -25 19 -18 19
7 0 28 -13 46 -30z m2020 -50 c-2 -2 -23 16 -46 40 l-42 44 46 -40 c25 -21 44
-41 42 -44z m37 54 c0 -2 -9 0 -20 6 -11 6 -20 13 -20 16 0 2 9 0 20 -6 11 -6
20 -13 20 -16z m73 19 c-7 -2 -21 -2 -30 0 -10 3 -4 5 12 5 17 0 24 -2 18 -5z
m900 0 c-7 -2 -21 -2 -30 0 -10 3 -4 5 12 5 17 0 24 -2 18 -5z m-2999 -19 c3
-8 2 -12 -4 -9 -6 3 -10 10 -10 16 0 14 7 11 14 -7z m3170 -85 c12 -14 -3 0
-31 30 -29 31 -53 60 -53 64 0 7 32 -29 84 -94z m-4310 83 c3 -5 -8 -6 -25 -4
-16 2 -29 6 -29 8 0 8 49 4 54 -4z m-84 -47 c19 -21 26 -33 15 -25 -25 18 -54
52 -55 64 0 5 1 7 3 5 1 -2 18 -22 37 -44z m841 28 c13 -16 12 -17 -3 -4 -10
7 -18 15 -18 17 0 8 8 3 21 -13z m387 -57 l37 -40 -45 39 c-25 22 -56 48 -70
58 -24 17 -24 17 8 0 18 -10 49 -35 70 -57z m2102 49 c-7 -8 -16 -15 -21 -15
-5 0 -1 8 9 18 20 22 31 19 12 -3z m1128 5 c22 -7 23 -8 6 -9 -11 -1 -29 6
-40 15 -10 8 -13 12 -6 9 8 -4 26 -11 40 -15z m-4318 -25 c19 -19 32 -35 29
-35 -3 0 -20 16 -39 35 -19 19 -32 35 -29 35 3 0 20 -16 39 -35z m4395 15 c10
-11 16 -20 13 -20 -3 0 -13 9 -23 20 -10 11 -16 20 -13 20 3 0 13 -9 23 -20z
m-3705 -55 c12 -4 19 -9 17 -12 -9 -8 -61 24 -87 53 -23 27 -23 26 12 -3 20
-17 46 -34 58 -38z m20 19 c0 -3 -13 4 -30 16 -16 12 -30 24 -30 26 0 3 14 -4
30 -16 17 -12 30 -24 30 -26z m-770 21 c23 -27 5 -35 -25 -10 -27 22 -28 24
-9 25 12 0 27 -7 34 -15z m3205 5 c-3 -5 -12 -10 -18 -10 -7 0 -6 4 3 10 19
12 23 12 15 0z m50 -20 c-10 -11 -22 -20 -28 -20 -5 0 1 9 14 20 31 25 37 25
14 0z m-2590 -10 c10 -11 16 -20 13 -20 -3 0 -13 9 -23 20 -10 11 -16 20 -13
20 3 0 13 -9 23 -20z m3845 5 c-14 -16 -25 -21 -16 -6 4 5 0 12 -6 14 -7 3 -2
6 11 6 20 1 21 -1 11 -14z m-3677 -22 c-7 -2 -19 -2 -25 0 -7 3 -2 5 12 5 14
0 19 -2 13 -5z m2369 0 c-6 -2 -9 -10 -6 -15 4 -7 2 -8 -5 -4 -13 9 -5 26 12
25 9 0 8 -2 -1 -6z m1201 0 c-7 -2 -19 -2 -25 0 -7 3 -2 5 12 5 14 0 19 -2 13
-5z m-4324 -47 c0 -6 -3 -5 -6 2 -2 6 -9 10 -14 6 -5 -3 -9 5 -9 18 1 22 1 22
15 4 8 -11 15 -25 14 -30z m29 19 c-3 -3 -9 2 -12 12 -6 14 -5 15 5 6 7 -7 10
-15 7 -18z m1072 -9 c1 5 10 -2 20 -15 11 -13 20 -28 20 -35 -1 -6 -8 1 -16
17 -16 30 -30 37 -19 10 3 -10 3 -14 -2 -8 -5 6 -19 24 -33 40 l-25 30 28 -24
c15 -14 27 -20 27 -15z m-435 -4 c-3 -3 -11 0 -18 7 -9 10 -8 11 6 5 10 -3 15
-9 12 -12z m3630 8 c3 -6 -1 -7 -9 -4 -18 7 -21 14 -7 14 6 0 13 -4 16 -10z
m-3244 -17 c13 -16 12 -17 -3 -4 -10 7 -18 15 -18 17 0 8 8 3 21 -13z m3290
-11 c-7 -2 -18 1 -23 6 -8 8 -4 9 13 5 13 -4 18 -8 10 -11z m-3573 1 c-10 -2
-26 -2 -35 0 -10 3 -2 5 17 5 19 0 27 -2 18 -5z m3626 -25 c19 -26 20 -38 5
-38 -5 0 -8 4 -4 10 3 5 -3 18 -15 30 -11 11 -16 20 -11 20 6 0 17 -10 25 -22z
m-4444 -14 c-8 -8 -23 -20 -34 -25 -13 -7 -9 -1 9 15 34 29 43 33 25 10z m57
-26 c-3 -7 -5 -2 -5 12 0 14 2 19 5 13 2 -7 2 -19 0 -25z m1080 0 c-3 -8 -6
-5 -6 6 -1 11 2 17 5 13 3 -3 4 -12 1 -19z m46 2 c3 -11 1 -18 -4 -14 -5 3 -9
12 -9 20 0 20 7 17 13 -6z m3114 -2 c-3 -8 -6 -5 -6 6 -1 11 2 17 5 13 3 -3 4
-12 1 -19z m-1007 8 c0 -2 -8 -10 -17 -17 -16 -13 -17 -12 -4 4 13 16 21 21
21 13z m-3193 -38 c-3 -7 -5 -2 -5 12 0 14 2 19 5 13 2 -7 2 -19 0 -25z m4160
10 c-3 -8 -6 -5 -6 6 -1 11 2 17 5 13 3 -3 4 -12 1 -19z m173 18 c0 -2 -8 -10
-17 -17 -16 -13 -17 -12 -4 4 13 16 21 21 21 13z m-4497 -13 c-7 -2 -19 -2
-25 0 -7 3 -2 5 12 5 14 0 19 -2 13 -5z m2631 -4 c24 -6 59 -25 79 -42 40 -35
97 -137 96 -171 0 -17 -3 -15 -15 11 -24 56 -78 100 -149 122 -77 24 -108 27
-195 16 -70 -8 -72 -8 -140 -27 -103 -29 -232 -132 -265 -210 -17 -41 -19
-122 -6 -180 5 -21 5 -38 1 -38 -12 0 -31 116 -29 183 2 93 52 194 123 247 65
49 102 61 181 59 33 -1 67 1 75 5 82 33 176 42 244 25z m933 -79 c-11 -19 -31
-45 -43 -58 -13 -12 -20 -17 -15 -11 5 6 7 19 4 28 -4 13 -3 13 5 2 8 -11 15
-5 31 27 12 23 21 54 22 69 l1 28 8 -25 c5 -18 1 -35 -13 -60z m790 8 c-2 -13
-4 -3 -4 22 0 25 2 35 4 23 2 -13 2 -33 0 -45z m-4280 30 c-3 -8 -6 -5 -6 6
-1 11 2 17 5 13 3 -3 4 -12 1 -19z m4310 0 c-3 -8 -6 -5 -6 6 -1 11 2 17 5 13
3 -3 4 -12 1 -19z m-1082 -18 c-9 -16 -18 -30 -21 -30 -2 0 2 14 11 30 9 17
18 30 21 30 2 0 -2 -13 -11 -30z m29 -23 c-14 -26 -28 -47 -30 -47 -3 0 7 23
22 50 15 28 29 49 31 47 2 -2 -8 -25 -23 -50z m-3147 37 c-3 -3 -12 -4 -19 -1
-8 3 -5 6 6 6 11 1 17 -2 13 -5z m53 -30 c0 -2 -9 0 -20 6 -11 6 -20 13 -20
16 0 2 9 0 20 -6 11 -6 20 -13 20 -16z m3002 -21 c-11 -15 -33 -39 -48 -53
-15 -14 -9 -3 14 24 23 27 42 53 42 59 0 6 3 8 6 4 3 -3 -3 -18 -14 -34z
m-1955 -35 c-2 -13 -4 -3 -4 22 0 25 2 35 4 23 2 -13 2 -33 0 -45z m-1110 46
c-3 -3 -12 -4 -19 -1 -8 3 -5 6 6 6 11 1 17 -2 13 -5z m2318 -26 c7 -18 16
-49 20 -70 6 -30 4 -38 -13 -47 -26 -14 -89 -14 -97 -1 -3 5 -7 35 -8 66 -2
45 2 58 17 70 34 25 65 18 81 -18z m103 20 c18 -18 15 -113 -3 -128 -24 -20
-61 2 -69 40 -8 42 -8 85 1 93 11 11 58 8 71 -5z m778 -25 c-8 -15 -15 -25
-16 -21 0 12 23 58 27 54 3 -2 -2 -17 -11 -33z m-3320 18 c-4 -5 -1 -12 4 -14
6 -3 5 -4 -2 -3 -12 2 -69 -59 -89 -96 -6 -10 -8 -26 -5 -36 3 -9 1 -24 -4
-32 -7 -11 -10 -6 -10 20 0 36 29 90 78 143 26 27 38 35 28 18z m3275 -36
c-11 -20 -22 -48 -22 -63 -2 -25 -2 -25 -6 -3 -4 21 36 115 45 106 3 -2 -5
-20 -17 -40z m1003 29 c3 -8 2 -12 -4 -9 -6 3 -10 10 -10 16 0 14 7 11 14 -7z
m-4176 -1 c-16 -2 -40 -2 -55 0 -16 2 -3 4 27 4 30 0 43 -2 28 -4z m117 -41
c-2 -3 -17 5 -33 17 -16 11 -33 17 -37 13 -5 -4 -5 -1 -1 5 5 9 16 7 41 -10
18 -12 32 -23 30 -25z m945 39 c0 -14 -50 -71 -62 -71 -6 0 1 9 15 20 14 11
29 29 32 40 7 21 15 27 15 11z m1160 -70 c5 -30 9 -56 7 -57 -2 -2 -20 -10
-40 -19 -35 -14 -38 -14 -57 5 -14 14 -20 33 -20 63 0 51 6 61 45 74 40 14 52
2 65 -66z m322 42 c13 -12 14 -20 6 -43 -13 -40 -33 -53 -64 -46 -25 7 -26 9
-19 59 4 29 9 55 12 60 5 8 39 -8 65 -30z m571 22 c-3 -9 -8 -14 -10 -11 -3 3
-2 9 2 15 9 16 15 13 8 -4z m1184 -27 c-3 -7 -5 -2 -5 12 0 14 2 19 5 13 2 -7
2 -19 0 -25z m-978 10 c0 -7 -4 -22 -9 -33 -7 -17 -9 -15 -9 13 -1 17 4 32 9
32 6 0 10 -6 9 -12z m940 -14 c14 -12 -19 -1 -35 12 -18 14 -18 14 6 3 14 -6
27 -13 29 -15z m-3178 -7 c-10 -9 -11 -8 -5 6 3 10 9 15 12 12 3 -3 0 -11 -7
-18z m3124 3 c10 -11 16 -20 13 -20 -3 0 -13 9 -23 20 -10 11 -16 20 -13 20 3
0 13 -9 23 -20z m-4205 -1 c0 -6 -9 -9 -20 -6 -26 7 -89 -10 -115 -31 -14 -12
-13 -9 4 10 13 15 33 29 45 31 44 9 86 7 86 -4z m1220 -81 c18 -46 42 -100 54
-121 16 -31 18 -40 7 -46 -32 -20 -97 29 -136 102 -18 35 -19 39 -3 70 9 17
19 45 22 60 4 15 10 25 15 23 5 -3 23 -43 41 -88z m1846 73 c-19 -21 -81 -48
-71 -31 4 6 12 10 19 10 8 0 24 9 37 20 31 25 37 25 15 1z m-2990 -7 c18 -14
18 -15 -4 -4 -13 6 -30 9 -38 6 -9 -3 -12 -1 -9 4 9 14 28 12 51 -6z m2025
-40 c6 -41 4 -52 -13 -67 -17 -14 -23 -15 -36 -5 -13 11 -42 68 -42 82 0 8 65
46 75 43 6 -2 13 -26 16 -53z m497 13 c12 -18 22 -38 22 -44 0 -16 -39 -23
-66 -11 -21 10 -22 13 -9 32 8 11 15 28 15 38 0 27 12 22 38 -15z m1716 17 c3
-8 2 -12 -4 -9 -6 3 -10 10 -10 16 0 14 7 11 14 -7z m-934 2 c0 -2 -8 -10 -17
-17 -16 -13 -17 -12 -4 4 13 16 21 21 21 13z m-2514 -34 c-17 -16 -18 -16 -5
5 7 12 15 20 18 17 3 -2 -3 -12 -13 -22z m45 0 c-6 -11 -7 -22 -4 -26 3 -3 -1
-6 -10 -6 -15 0 -15 3 1 29 18 32 30 35 13 3z m3279 3 c14 -19 14 -19 -2 -6
-10 7 -18 18 -18 24 0 6 1 8 3 6 1 -2 9 -13 17 -24z m-4212 8 c-10 -2 -28 -2
-40 0 -13 2 -5 4 17 4 22 1 32 -1 23 -4z m117 -13 c10 -11 16 -20 13 -20 -3 0
-13 9 -23 20 -10 11 -16 20 -13 20 3 0 13 -9 23 -20z m940 10 c-3 -5 -12 -10
-18 -10 -7 0 -6 4 3 10 19 12 23 12 15 0z m80 -9 c-3 -6 -11 -11 -16 -11 -5 0
-4 6 3 14 14 16 24 13 13 -3z m-1206 6 c-2 -2 -17 -11 -34 -21 l-30 -17 24 20
c13 12 28 21 34 21 6 0 8 -1 6 -3z m1161 -2 c0 -6 -56 -35 -67 -35 -4 1 8 9
27 20 39 22 40 22 40 15z m3313 -54 c-2 -3 -18 10 -36 29 l-32 34 36 -30 c20
-16 34 -31 32 -33z m-4308 19 c10 -11 16 -20 13 -20 -3 0 -13 9 -23 20 -10 11
-16 20 -13 20 3 0 13 -9 23 -20z m1942 -15 c16 -34 16 -36 -7 -60 -31 -33 -38
-32 -56 11 -15 35 -14 38 7 60 30 32 36 30 56 -11z m2198 4 c-4 -5 -12 -9 -18
-8 -9 0 -8 2 1 6 6 2 9 10 6 15 -4 7 -2 8 5 4 6 -4 9 -12 6 -17z m72 15 c-3
-3 -12 -4 -19 -1 -8 3 -5 6 6 6 11 1 17 -2 13 -5z m-1026 -47 l-24 -22 19 27
c10 14 21 24 23 22 3 -3 -6 -15 -18 -27z m919 0 c12 4 13 3 1 -5 -8 -6 -10
-15 -6 -23 9 -16 1 -8 -35 36 l-25 30 25 -21 c14 -12 32 -19 40 -17z m105 11
c6 1 29 -17 50 -39 38 -39 38 -40 8 -19 -18 13 -33 27 -33 32 0 4 -3 7 -7 6
-15 -4 -82 26 -77 34 3 4 15 3 27 -4 12 -7 27 -11 32 -10z m-3360 -8 c30 -10
30 -10 -5 -4 -19 3 -45 7 -58 8 -12 2 -25 6 -29 9 -8 9 55 0 92 -13z m1719
-11 c10 -52 7 -79 -9 -79 -17 0 -41 34 -50 72 -5 20 -3 27 12 31 36 9 41 7 47
-24z m493 9 c-3 -8 -6 -5 -6 6 -1 11 2 17 5 13 3 -3 4 -12 1 -19z m-3160 6
c-3 -3 -12 -4 -19 -1 -8 3 -5 6 6 6 11 1 17 -2 13 -5z m1108 -4 c3 -6 -1 -7
-9 -4 -18 7 -21 14 -7 14 6 0 13 -4 16 -10z m2205 -20 c-11 -16 -26 -33 -32
-36 -7 -4 1 9 16 29 34 44 46 50 16 7z m-3430 17 c0 -2 -11 -14 -24 -26 -20
-19 -24 -20 -30 -6 -3 9 -2 13 4 10 6 -4 17 1 26 9 15 15 24 20 24 13z m4184
-6 c4 -5 -3 -7 -14 -4 -23 6 -26 13 -6 13 8 0 17 -4 20 -9z m-3999 -21 c10
-11 16 -20 13 -20 -3 0 -13 9 -23 20 -10 11 -16 20 -13 20 3 0 13 -9 23 -20z
m1904 -15 c20 -34 20 -35 1 -45 -10 -5 -28 -10 -39 -10 -18 0 -18 3 -9 38 17
63 19 64 47 17z m-1929 -22 c11 -14 20 -31 20 -37 -1 -6 -7 1 -16 16 -18 35
-53 55 -64 38 -5 -8 -9 -5 -12 8 -5 18 -3 19 23 10 16 -5 38 -21 49 -35z m977
41 c-3 -3 -12 -4 -19 -1 -8 3 -5 6 6 6 11 1 17 -2 13 -5z m2223 2 c0 -2 -8
-10 -17 -17 -16 -13 -17 -12 -4 4 13 16 21 21 21 13z m950 -93 c0 -7 -98 76
-107 90 -4 7 19 -10 50 -37 31 -27 57 -51 57 -53z m-3247 80 c-7 -2 -19 -2
-25 0 -7 3 -2 5 12 5 14 0 19 -2 13 -5z m198 -20 c-12 -20 -14 -14 -5 12 4 9
9 14 11 11 3 -2 0 -13 -6 -23z m2003 5 c-6 -23 -6 -23 22 2 18 15 15 10 -8
-15 -21 -22 -52 -49 -70 -59 l-33 -18 31 26 c17 14 37 39 44 56 14 35 25 40
14 8z m99 0 c-11 -13 -27 -34 -36 -48 -10 -13 -17 -20 -17 -15 0 12 58 85 67
85 4 0 -3 -10 -14 -22z m783 -4 c19 -15 19 -15 -1 -6 -11 5 -27 12 -35 15 -13
5 -13 6 1 6 8 1 24 -6 35 -15z m85 -41 c8 -11 3 -9 -12 5 -47 42 -43 22 6 -30
l50 -53 -52 49 c-29 28 -50 52 -48 54 3 3 -1 12 -8 21 -6 8 2 6 19 -6 17 -12
37 -30 45 -40z m249 17 c17 -15 19 -18 5 -11 -11 6 -31 20 -45 31 -17 15 -19
18 -5 11 11 -6 31 -20 45 -31z m-3189 3 c13 -16 12 -17 -3 -4 -10 7 -18 15
-18 17 0 8 8 3 21 -13z m-90 -16 c-10 -9 -11 -8 -5 6 3 10 9 15 12 12 3 -3 0
-11 -7 -18z m2095 -6 c-15 -16 -27 -33 -26 -38 1 -4 -8 -14 -19 -21 -17 -11
-19 -11 -17 2 1 8 6 19 11 23 4 4 5 2 0 -6 -5 -9 -4 -12 4 -10 7 3 12 8 11 13
-2 8 50 66 59 66 2 0 -8 -13 -23 -29z m94 25 c0 -2 -8 -10 -17 -17 -16 -13
-17 -12 -4 4 13 16 21 21 21 13z m745 -16 c3 -6 -1 -7 -9 -4 -18 7 -21 14 -7
14 6 0 13 -4 16 -10z m341 -22 l29 -33 -32 29 c-31 28 -38 36 -30 36 2 0 16
-15 33 -32z m-3116 -35 c0 -8 -38 17 -51 33 -9 11 -2 9 19 -6 17 -13 32 -25
32 -27z m754 25 c9 -36 7 -55 -6 -56 -66 -10 -73 -8 -76 23 -3 27 1 32 30 41
18 6 36 12 39 13 4 0 9 -9 13 -21z m2126 -65 c0 -8 -9 0 -50 45 l-45 47 48
-45 c26 -24 47 -45 47 -47z m220 44 c10 -20 10 -21 -4 -4 -8 10 -23 25 -33 33
-17 14 -16 14 4 4 13 -6 27 -20 33 -33z m-3270 30 c0 -2 -12 -14 -27 -28 l-28
-24 24 28 c23 25 31 32 31 24z m2170 0 c0 -2 -17 -19 -37 -38 l-38 -34 34 38
c33 34 41 42 41 34z m911 -14 c13 -16 12 -17 -3 -4 -17 13 -22 21 -14 21 2 0
10 -8 17 -17z m250 0 c13 -16 12 -17 -3 -4 -17 13 -22 21 -14 21 2 0 10 -8 17
-17z m88 -83 c0 -23 -1 -23 -8 -5 -5 11 -7 23 -4 28 2 4 0 7 -4 7 -5 0 -17 15
-26 33 l-18 32 30 -35 c18 -20 31 -45 30 -60z m-3389 65 c-6 -8 -9 -19 -5 -24
4 -7 0 -8 -10 -5 -14 6 -14 8 1 25 20 22 32 26 14 4z m193 -12 c-7 -2 -19 -2
-25 0 -7 3 -2 5 12 5 14 0 19 -2 13 -5z m1727 3 c0 -8 -51 -13 -56 -5 -3 5 9
9 25 9 17 0 31 -2 31 -4z m-1670 -26 c6 -11 8 -20 6 -20 -3 0 -10 9 -16 20 -6
11 -8 20 -6 20 3 0 10 -9 16 -20z m1740 10 c8 -5 11 -10 5 -10 -5 0 -17 5 -25
10 -8 5 -10 10 -5 10 6 0 17 -5 25 -10z m-3120 -46 c0 -7 -4 -16 -10 -19 -6
-3 -7 1 -4 10 4 8 0 23 -7 33 -13 15 -12 16 4 3 9 -7 17 -19 17 -27z m1161 19
c13 -16 12 -17 -3 -4 -10 7 -18 15 -18 17 0 8 8 3 21 -13z m1479 -3 c13 -13
20 -33 20 -60 l0 -41 -62 52 c-35 28 -67 55 -72 60 -6 5 11 9 42 9 39 0 57 -5
72 -20z m453 13 c-7 -2 -21 -2 -30 0 -10 3 -4 5 12 5 17 0 24 -2 18 -5z
m-2002 -30 l24 -28 -30 25 c-16 14 -32 26 -34 28 -2 1 0 2 6 2 5 0 20 -12 34
-27z m2081 0 c-3 -16 -7 -22 -10 -15 -4 13 4 42 11 42 2 0 2 -12 -1 -27z
m-1762 -13 c6 -11 8 -20 6 -20 -3 0 -10 9 -16 20 -6 11 -8 20 -6 20 3 0 10 -9
16 -20z m1810 -25 c-24 -25 -46 -45 -49 -45 -3 0 15 20 39 45 24 25 46 45 49
45 3 0 -15 -20 -39 -45z m-2136 -7 c24 -25 27 -29 6 -11 -19 18 -46 36 -60 42
-18 7 -20 10 -7 10 10 1 37 -18 61 -41z m66 2 c0 -10 6 -21 13 -23 7 -3 7 -6
1 -6 -6 -1 -19 9 -30 21 -10 12 -13 18 -5 13 11 -6 13 -4 8 9 -4 10 -3 15 3
11 6 -3 10 -15 10 -25z m37 -2 c-3 -8 -6 -5 -6 6 -1 11 2 17 5 13 3 -3 4 -12
1 -19z m3300 0 c-3 -8 -6 -5 -6 6 -1 11 2 17 5 13 3 -3 4 -12 1 -19z m-1327 8
c0 -2 -8 -10 -17 -17 -16 -13 -17 -12 -4 4 13 16 21 21 21 13z m150 -3 c0 -5
-10 -19 -21 -33 l-21 -25 18 33 c18 32 24 38 24 25z m1107 -30 c-3 -10 -5 -4
-5 12 0 17 2 24 5 18 2 -7 2 -21 0 -30z m-4426 -3 c-23 -17 -49 -46 -58 -65
-9 -19 -20 -32 -24 -29 -4 2 -12 -4 -18 -13 -6 -10 -11 -13 -11 -6 0 6 10 19
22 27 12 9 18 16 13 16 -5 0 7 16 26 36 18 19 34 38 34 42 0 4 5 6 12 4 7 -2
13 2 13 8 0 5 7 10 17 10 9 0 -1 -12 -26 -30z m3269 27 c0 -2 -15 -16 -32 -33
l-33 -29 29 33 c28 30 36 37 36 29z m-2250 -32 c13 -14 21 -25 18 -25 -2 0
-15 11 -28 25 -13 14 -21 25 -18 25 2 0 15 -11 28 -25z m2323 -5 c-3 -11 -8
-20 -12 -20 -4 0 -21 -14 -39 -31 -19 -19 -38 -29 -49 -26 -16 4 -15 5 2 6 11
1 38 22 60 46 22 25 41 45 42 45 0 0 -1 -9 -4 -20z m-3383 6 c0 -2 -8 -10 -17
-17 -16 -13 -17 -12 -4 4 13 16 21 21 21 13z m1511 -13 c13 -16 12 -17 -3 -4
-10 7 -18 15 -18 17 0 8 8 3 21 -13z m1669 13 c0 -2 -8 -10 -17 -17 -16 -13
-17 -12 -4 4 13 16 21 21 21 13z m-3111 -18 c-2 -2 -17 -14 -34 -28 l-30 -25
24 28 c14 15 29 27 34 27 6 0 8 -1 6 -2z m3236 -8 c-3 -5 -12 -10 -18 -10 -7
0 -6 4 3 10 19 12 23 12 15 0z m112 -12 c-3 -8 -6 -5 -6 6 -1 11 2 17 5 13 3
-3 4 -12 1 -19z m-3478 -15 c-13 -16 -27 -32 -32 -38 -4 -5 -5 -1 -1 9 6 16 4
18 -12 12 -12 -5 -16 -4 -9 3 6 5 17 11 25 13 8 2 21 9 28 16 25 23 26 12 1
-15z m3174 -3 l-32 -29 32 -4 c24 -3 19 -4 -16 -5 l-49 -2 44 34 c53 42 64 45
21 6z m62 20 c-3 -5 -12 -10 -18 -10 -7 0 -6 4 3 10 19 12 23 12 15 0z m-1634
-17 c13 -16 12 -17 -3 -4 -10 7 -18 15 -18 17 0 8 8 3 21 -13z m1689 12 c0 -7
-63 -45 -75 -45 -5 0 8 11 30 24 47 28 45 27 45 21z m-2763 -11 c-3 -3 -12 -4
-19 -1 -8 3 -5 6 6 6 11 1 17 -2 13 -5z m630 -26 c-3 -8 -6 -5 -6 6 -1 11 2
17 5 13 3 -3 4 -12 1 -19z m-20 -25 c-3 -10 -5 -4 -5 12 0 17 2 24 5 18 2 -7
2 -21 0 -30z m2306 24 c4 3 7 1 7 -5 0 -17 -16 -15 -31 6 -12 15 -12 16 2 5 9
-7 19 -10 22 -6z m197 3 c8 -5 11 -10 5 -10 -5 0 -17 5 -25 10 -8 5 -10 10 -5
10 6 0 17 -5 25 -10z m900 0 c-12 -8 -8 -16 23 -47 31 -32 39 -35 47 -23 8 13
10 12 10 -2 0 -30 -26 -20 -69 27 -22 24 -41 46 -41 48 0 1 10 4 22 4 18 2 20
0 8 -7z m-2885 -77 c-18 -17 -18 -17 -5 0 11 15 9 22 -16 50 l-29 32 35 -32
c34 -32 34 -33 15 -50z m-1725 20 c-4 -42 -5 -44 -8 -15 -3 30 2 62 10 62 2 0
1 -21 -2 -47z m1277 5 c-3 -7 -5 -2 -5 12 0 14 2 19 5 13 2 -7 2 -19 0 -25z
m2208 22 c3 -6 -1 -7 -9 -4 -18 7 -21 14 -7 14 6 0 13 -4 16 -10z m372 -27
c-3 -10 -5 -4 -5 12 0 17 2 24 5 18 2 -7 2 -21 0 -30z m680 5 c-3 -7 -5 -2 -5
12 0 14 2 19 5 13 2 -7 2 -19 0 -25z m-4450 0 c-3 -8 -6 -5 -6 6 -1 11 2 17 5
13 3 -3 4 -12 1 -19z m3597 -7 c-2 -3 -12 3 -22 13 -16 17 -16 18 5 5 12 -7
20 -15 17 -18z m-2954 14 c0 -2 -10 -9 -22 -15 -22 -11 -22 -10 -4 4 21 17 26
19 26 11z m507 -17 c-3 -8 -6 -5 -6 6 -1 11 2 17 5 13 3 -3 4 -12 1 -19z
m1373 18 c0 -5 -92 -49 -234 -113 -93 -41 -99 -43 -117 -27 -10 9 -16 21 -13
26 3 5 12 1 20 -9 14 -17 15 -17 9 3 -5 18 4 25 57 47 102 43 200 74 241 76
20 0 37 -1 37 -3z m980 -31 c0 -5 -5 -3 -10 5 -5 8 -10 20 -10 25 0 6 5 3 10
-5 5 -8 10 -19 10 -25z m-895 -11 c15 -19 25 -37 24 -38 -2 -1 -33 -13 -69
-26 -102 -37 -227 -97 -275 -131 -32 -23 -51 -48 -74 -97 -25 -55 -81 -200
-81 -209 0 -2 -9 -3 -20 -3 -18 0 -70 46 -70 62 0 3 16 12 35 18 19 6 43 24
54 39 23 32 37 96 23 105 -7 4 -4 25 8 60 33 98 56 117 86 71 9 -14 21 -22 26
-19 5 3 0 17 -13 30 l-22 24 34 14 c19 8 93 42 164 75 72 33 133 61 136 61 4
0 19 -16 34 -36z m602 30 c-3 -3 -12 -4 -19 -1 -8 3 -5 6 6 6 11 1 17 -2 13
-5z m200 -16 c-3 -8 -6 -5 -6 6 -1 11 2 17 5 13 3 -3 4 -12 1 -19z m143 -3
c13 -14 21 -25 18 -25 -2 0 -15 11 -28 25 -13 14 -21 25 -18 25 2 0 15 -11 28
-25z m757 -7 c-3 -7 -5 -2 -5 12 0 14 2 19 5 13 2 -7 2 -19 0 -25z m-803 -78
l21 -25 -24 20 c-22 19 -62 85 -61 102 1 4 10 -10 22 -32 11 -22 30 -51 42
-65z m763 48 c-2 -13 -4 -5 -4 17 -1 22 1 32 4 23 2 -10 2 -28 0 -40z m-3830
36 c-3 -3 -12 -4 -19 -1 -8 3 -5 6 6 6 11 1 17 -2 13 -5z m2721 -21 c-14 -16
-38 -46 -52 -67 -14 -21 -26 -34 -26 -29 0 17 86 123 99 123 2 0 -7 -12 -21
-27z m-3121 -5 c-3 -8 -6 -5 -6 6 -1 11 2 17 5 13 3 -3 4 -12 1 -19z m523 12
c-8 -5 -19 -10 -25 -10 -5 0 -3 5 5 10 8 5 20 10 25 10 6 0 3 -5 -5 -10z
m-633 -30 c-4 -15 8 -32 50 -67 30 -26 50 -49 44 -51 -32 -11 -118 89 -105
121 9 24 17 21 11 -3z m40 -2 c-3 -8 -6 -5 -6 6 -1 11 2 17 5 13 3 -3 4 -12 1
-19z m3656 15 c-7 -2 -21 -2 -30 0 -10 3 -4 5 12 5 17 0 24 -2 18 -5z m684
-25 c-3 -7 -5 -2 -5 12 0 14 2 19 5 13 2 -7 2 -19 0 -25z m-3757 2 c-19 -11
-39 -19 -45 -19 -5 0 6 8 25 19 19 11 40 19 45 19 6 0 -6 -8 -25 -19z m2919
-45 c14 -17 9 -14 -11 7 -21 20 -38 43 -38 50 0 7 6 4 12 -7 6 -11 22 -34 37
-50z m88 19 c17 -14 16 -14 -4 -4 -13 6 -27 20 -33 33 -10 20 -10 21 4 4 8
-10 23 -25 33 -33z m790 24 c-3 -8 -6 -5 -6 6 -1 11 2 17 5 13 3 -3 4 -12 1
-19z m-4287 -13 c14 -19 14 -19 -2 -6 -10 7 -18 18 -18 24 0 6 1 8 3 6 1 -2 9
-13 17 -24z m383 18 c-13 -2 -33 -2 -45 0 -13 2 -3 4 22 4 25 0 35 -2 23 -4z
m-437 -45 l29 -33 -32 29 c-18 17 -33 31 -33 33 0 8 8 1 36 -29z m2620 1 c-1
-24 -5 -29 -19 -25 -37 9 -205 -55 -267 -104 -19 -15 -42 -25 -50 -22 -9 3 -7
-4 8 -20 12 -13 22 -30 22 -36 0 -7 18 -30 40 -52 l40 -40 -21 -41 c-25 -49
-89 -121 -143 -161 -38 -27 -96 -38 -96 -18 0 6 6 10 13 10 35 0 67 149 39
183 -7 9 -5 24 8 52 11 22 19 46 20 53 0 14 16 16 25 2 3 -5 11 -10 17 -10 6
0 3 9 -6 19 -27 30 -12 55 58 100 50 31 281 137 307 140 4 1 6 -13 5 -30z m44
-9 c5 0 10 5 12 10 2 6 20 -1 41 -16 21 -14 37 -28 34 -30 -4 -5 -108 14 -115
21 -2 2 -1 17 4 32 7 26 8 26 11 6 3 -13 8 -23 13 -23z m1010 36 c0 -2 -8 -10
-17 -17 -16 -13 -17 -12 -4 4 13 16 21 21 21 13z m767 -28 c-3 -7 -5 -2 -5 12
0 14 2 19 5 13 2 -7 2 -19 0 -25z m-4060 16 c-3 -3 -12 -4 -19 -1 -8 3 -5 6 6
6 11 1 17 -2 13 -5z m3328 -24 c-10 -11 -22 -20 -28 -20 -5 0 1 9 14 20 31 25
37 25 14 0z m-87 3 c-10 -2 -26 -2 -35 0 -10 3 -2 5 17 5 19 0 27 -2 18 -5z
m-525 -36 c-15 -19 -30 -32 -32 -30 -5 3 49 63 57 63 2 0 -9 -15 -25 -33z
m-926 4 c-2 -3 -11 -23 -20 -43 -10 -21 -20 -38 -23 -38 -6 0 5 79 12 92 6 9
36 -2 31 -11z m1003 -43 c0 -75 -9 -84 -52 -58 -27 15 -35 26 -31 40 6 21 57
70 74 70 5 0 9 -24 9 -52z m480 42 c-8 -5 -19 -10 -25 -10 -5 0 -3 5 5 10 8 5
20 10 25 10 6 0 3 -5 -5 -10z m655 -17 c10 -16 12 -23 5 -16 -11 10 -16 9 -27
-5 -13 -15 -13 -14 -3 6 6 12 8 27 5 32 -3 6 -4 10 -2 10 3 0 13 -12 22 -27z
m-712 0 c-13 -2 -35 -2 -50 0 -16 2 -5 4 22 4 28 0 40 -2 28 -4z m677 3 c0 -2
-8 -10 -17 -17 -16 -13 -17 -12 -4 4 13 16 21 21 21 13z m164 -75 c-4 -5 -70
37 -84 54 -7 9 10 1 37 -17 28 -18 49 -35 47 -37z m-4077 37 c-3 -8 -6 -5 -6
6 -1 11 2 17 5 13 3 -3 4 -12 1 -19z m2097 -19 c-16 -17 -41 -37 -56 -45 -27
-14 -68 -19 -68 -8 0 17 137 98 149 87 3 -2 -9 -17 -25 -34z m776 -28 c-1 -13
-29 45 -29 59 0 8 6 0 14 -19 8 -18 15 -36 15 -40z m-2903 27 c-3 -8 -6 -5 -6
6 -1 11 2 17 5 13 3 -3 4 -12 1 -19z m4053 -17 c19 -11 31 -21 26 -21 -17 0
-76 42 -76 53 0 9 2 9 8 1 4 -6 23 -21 42 -33z m-50 -18 c0 -8 -38 17 -51 33
-9 11 -2 9 19 -6 17 -13 32 -25 32 -27z m-2797 -19 c-2 -7 6 -32 18 -56 19
-37 23 -40 29 -23 6 16 8 13 7 -12 0 -18 -1 -33 -3 -33 -9 0 -58 98 -60 119
-1 14 -5 35 -9 46 -4 14 -2 12 8 -4 8 -14 13 -30 10 -37z m2797 -8 c25 -14 40
-26 34 -26 -15 0 -97 54 -114 76 -11 15 -9 14 10 -3 14 -12 45 -33 70 -47z
m-4310 50 c0 -2 -8 -10 -17 -17 -16 -13 -17 -12 -4 4 13 16 21 21 21 13z m251
-19 c-10 -9 -11 -8 -5 6 3 10 9 15 12 12 3 -3 0 -11 -7 -18z m1319 -31 c0 -12
-5 -7 -19 24 -11 24 -11 24 3 6 9 -11 16 -24 16 -30z m1611 11 c-10 -9 -11 -8
-5 6 3 10 9 15 12 12 3 -3 0 -11 -7 -18z m81 1 c-7 -7 -12 -8 -12 -2 0 14 12
26 19 19 2 -3 -1 -11 -7 -17z m67 -33 c0 -5 -6 1 -14 15 -8 14 -14 30 -14 35
0 6 6 -1 14 -15 8 -14 14 -29 14 -35z m-3359 31 c0 -2 -8 -10 -17 -17 -16 -13
-17 -12 -4 4 13 16 21 21 21 13z m220 1 c0 -2 -15 -16 -32 -33 l-33 -29 29 33
c28 30 36 37 36 29z m50 0 c0 -2 -10 -12 -22 -23 l-23 -19 19 23 c18 21 26 27
26 19z m4275 -27 l20 -25 -22 19 c-13 11 -23 24 -23 29 0 6 1 8 3 6 1 -2 11
-15 22 -29z m-4042 -39 c-2 -3 -18 10 -36 29 l-32 34 36 -30 c20 -16 34 -31
32 -33z m2817 24 c0 -5 -5 -3 -10 5 -5 8 -10 20 -10 25 0 6 5 3 10 -5 5 -8 10
-19 10 -25z m-70 -34 c6 -16 10 -46 7 -67 -4 -38 -4 -38 -5 7 -1 31 -11 59
-28 85 -20 30 -22 35 -6 21 11 -10 25 -31 32 -46z m-2877 36 c3 -8 -1 -14 -8
-14 -7 0 -11 6 -8 14 3 7 6 13 8 13 2 0 5 -6 8 -13z m1146 -17 c11 -24 11 -24
-3 -6 -9 11 -16 24 -16 30 0 12 5 7 19 -24z m62 13 c13 -16 12 -17 -3 -4 -17
13 -22 21 -14 21 2 0 10 -8 17 -17z m1676 -5 c-3 -8 -6 -5 -6 6 -1 11 2 17 5
13 3 -3 4 -12 1 -19z m1258 -24 c11 -8 13 -12 5 -8 -24 11 -50 36 -50 47 0 6
6 3 13 -6 6 -9 21 -24 32 -33z m-4580 -2 c11 -6 15 -12 8 -12 -7 0 -22 10 -35
23 -13 12 -17 17 -8 11 8 -6 24 -16 35 -22z m3362 16 c-3 -8 -6 -5 -6 6 -1 11
2 17 5 13 3 -3 4 -12 1 -19z m-2852 -29 c22 -23 31 -36 20 -29 -19 12 -71 70
-63 70 2 0 22 -19 43 -41z m6 24 c13 -16 12 -17 -3 -4 -10 7 -18 15 -18 17 0
8 8 3 21 -13z m2927 -73 c1 -28 -1 -31 -8 -15 -5 11 -8 40 -8 65 0 41 1 42 8
15 4 -16 8 -46 8 -65z m1067 80 c3 -6 -1 -7 -9 -4 -18 7 -21 14 -7 14 6 0 13
-4 16 -10z m-4235 -3 c0 -2 -10 -12 -22 -23 l-23 -19 19 23 c18 21 26 27 26
19z m4374 -30 c-8 -5 -22 -6 -32 -4 -12 3 -10 5 7 6 21 1 22 3 10 18 -13 15
-12 15 8 2 19 -11 20 -15 7 -22z m-4198 1 c0 -10 -1 -18 -3 -18 -1 0 -7 8 -12
18 -7 13 -6 19 2 19 7 0 13 -9 13 -19z m1739 -5 c-8 -36 -43 -73 -67 -73 -15
0 -11 10 24 50 24 27 45 50 47 50 2 0 0 -12 -4 -27z m1202 -10 c-3 -10 -5 -4
-5 12 0 17 2 24 5 18 2 -7 2 -21 0 -30z m-3284 10 c-13 -2 -35 -2 -50 0 -16 2
-5 4 22 4 28 0 40 -2 28 -4z m2582 -18 c102 -39 140 -61 153 -90 12 -25 11
-26 -10 -18 -65 23 -163 -14 -205 -76 -33 -49 -65 -157 -65 -219 0 -53 0 -54
-20 -35 -42 36 -108 150 -108 185 0 66 85 210 150 254 19 13 35 24 36 24 1 0
32 -11 69 -25z m-2479 0 c-11 -8 -25 -15 -30 -15 -6 1 0 7 14 15 32 19 40 18
16 0z m275 -2 c13 -16 12 -17 -3 -4 -10 7 -18 15 -18 17 0 8 8 3 21 -13z
m1144 -13 c10 -11 16 -20 13 -20 -3 0 -13 9 -23 20 -10 11 -16 20 -13 20 3 0
13 -9 23 -20z m2712 -12 c-3 -8 -6 -5 -6 6 -1 11 2 17 5 13 3 -3 4 -12 1 -19z
m-4180 -10 c-3 -8 -6 -5 -6 6 -1 11 2 17 5 13 3 -3 4 -12 1 -19z m364 5 c13
-16 12 -17 -3 -4 -10 7 -18 15 -18 17 0 8 8 3 21 -13z m2836 -15 c-3 -7 -5 -2
-5 12 0 14 2 19 5 13 2 -7 2 -19 0 -25z m120 -10 c-3 -8 -6 -5 -6 6 -1 11 2
17 5 13 3 -3 4 -12 1 -19z m-1807 -23 c0 -19 -2 -35 -4 -35 -2 0 -6 16 -8 35
-2 19 0 35 4 35 4 0 8 -16 8 -35z m2857 -12 c-3 -10 -5 -2 -5 17 0 19 2 27 5
18 2 -10 2 -26 0 -35z m-2292 -59 c-6 -40 -29 -74 -42 -61 -3 4 5 39 18 79 25
77 37 68 24 -18z m1072 54 c-3 -8 -6 -5 -6 6 -1 11 2 17 5 13 3 -3 4 -12 1
-19z m1022 -8 c11 -24 11 -24 -3 -6 -9 11 -16 24 -16 30 0 12 5 7 19 -24z
m120 -4 c-3 -3 -11 5 -18 17 -13 21 -12 21 5 5 10 -10 16 -20 13 -22z m-85 8
c3 -8 2 -12 -4 -9 -6 3 -10 10 -10 16 0 14 7 11 14 -7z m85 -69 c9 -12 4 -8
-11 7 -16 16 -28 34 -28 41 0 6 6 3 12 -8 6 -11 18 -29 27 -40z m100 25 c11
-24 11 -24 -3 -6 -9 11 -16 24 -16 30 0 12 5 7 19 -24z m-4439 17 c0 -2 -17
-19 -37 -38 l-38 -34 34 38 c33 34 41 42 41 34z m2679 -44 c43 -50 86 -148 97
-220 6 -39 4 -44 -29 -73 -42 -36 -77 -104 -77 -146 0 -17 -3 -34 -6 -37 -9
-8 -45 20 -116 90 l-57 55 30 25 29 24 -21 40 c-15 30 -19 55 -17 102 l3 62
32 -67 c18 -38 37 -68 43 -68 14 0 13 5 -15 114 -14 53 -25 98 -25 100 0 7 65
46 77 46 6 0 30 -21 52 -47z m1661 -31 c0 -8 -55 41 -69 61 -8 12 4 4 27 -18
23 -22 42 -41 42 -43z m52 38 c6 0 9 -3 6 -6 -10 -9 -45 14 -52 33 -6 14 -2
13 14 -4 11 -13 26 -23 32 -23z m-2925 8 c-3 -8 -6 -5 -6 6 -1 11 2 17 5 13 3
-3 4 -12 1 -19z m2328 -4 c9 -15 12 -23 6 -20 -11 7 -35 46 -28 46 3 0 12 -12
22 -26z m25 1 c14 -19 14 -19 -2 -6 -10 7 -18 18 -18 24 0 6 1 8 3 6 1 -2 9
-13 17 -24z m-2393 -37 c-2 -13 -4 -5 -4 17 -1 22 1 32 4 23 2 -10 2 -28 0
-40z m140 -5 c-3 -10 -5 -2 -5 17 0 19 2 27 5 18 2 -10 2 -26 0 -35z m2203 15
c15 -21 17 -28 6 -19 -16 13 -41 51 -33 51 2 0 14 -15 27 -32z m130 7 c-28
-16 -95 -21 -71 -6 8 5 20 7 27 4 7 -2 21 0 31 6 10 6 23 10 28 10 6 0 -1 -6
-15 -14z m207 9 c-3 -3 -12 -4 -19 -1 -8 3 -5 6 6 6 11 1 17 -2 13 -5z m218
-58 c6 -4 1 -4 -10 2 -11 6 -31 23 -45 39 l-25 28 35 -30 c19 -16 40 -34 45
-39z m-3241 45 c4 -5 -3 -7 -14 -4 -23 6 -26 13 -6 13 8 0 17 -4 20 -9z m2084
-19 c-2 -16 2 -34 9 -41 7 -6 13 -16 13 -21 0 -6 -9 -1 -20 10 -21 21 -24 37
-14 64 10 26 17 18 12 -12z m1318 -4 l29 -33 -32 29 c-31 28 -38 36 -30 36 2
0 16 -15 33 -32z m-561 2 c-10 -11 -22 -20 -28 -20 -5 0 1 9 14 20 31 25 37
25 14 0z m285 -64 c0 -6 -7 1 -17 14 -9 14 -23 34 -32 46 -9 11 -1 5 17 -15
17 -19 32 -39 32 -45z m-3089 57 c13 -16 12 -17 -3 -4 -17 13 -22 21 -14 21 2
0 10 -8 17 -17z m366 -5 c-3 -8 -6 -5 -6 6 -1 11 2 17 5 13 3 -3 4 -12 1 -19z
m2908 2 c-3 -5 -12 -10 -18 -10 -7 0 -6 4 3 10 19 12 23 12 15 0z m-3325 -85
c0 -1 -7 -2 -15 -2 -8 0 -12 4 -9 9 3 4 1 8 -4 8 -5 0 -22 17 -37 38 -28 37
-28 37 18 -8 26 -24 47 -45 47 -45z m20 60 c16 -17 17 -22 5 -22 -8 0 -24 10
-35 22 -16 17 -17 22 -5 22 8 0 24 -10 35 -22z m377 -7 c-3 -7 -5 -2 -5 12 0
14 2 19 5 13 2 -7 2 -19 0 -25z m2620 10 c-3 -8 -6 -5 -6 6 -1 11 2 17 5 13 3
-3 4 -12 1 -19z m84 -39 c12 -24 18 -56 18 -86 l-2 -48 -6 55 c-8 66 -38 130
-52 109 -6 -10 -9 -8 -9 10 0 20 2 22 16 10 8 -7 24 -30 35 -50z m259 51 c0
-5 -7 -10 -16 -10 -8 0 -12 5 -9 10 3 6 10 10 16 10 5 0 9 -4 9 -10z m-4383
-37 c-3 -10 -5 -4 -5 12 0 17 2 24 5 18 2 -7 2 -21 0 -30z m3830 31 c-3 -3
-12 -4 -19 -1 -8 3 -5 6 6 6 11 1 17 -2 13 -5z m488 -22 c-3 -3 -11 0 -18 7
-9 10 -8 11 6 5 10 -3 15 -9 12 -12z m185 14 c0 -2 -7 -6 -15 -10 -8 -3 -15
-1 -15 4 0 6 7 10 15 10 8 0 15 -2 15 -4z m-1316 -41 l17 -30 -20 24 c-12 13
-21 28 -21 34 0 12 0 11 24 -28z m683 29 c-3 -3 -12 -4 -19 -1 -8 3 -5 6 6 6
11 1 17 -2 13 -5z m101 -1 c-15 -2 -42 -2 -60 0 -18 2 -6 4 27 4 33 0 48 -2
33 -4z m380 -28 c-3 -3 -9 2 -12 12 -6 14 -5 15 5 6 7 -7 10 -15 7 -18z m57 7
c-3 -3 -11 0 -18 7 -9 10 -8 11 6 5 10 -3 15 -9 12 -12z m-4525 -17 c14 -19
14 -19 -2 -6 -10 7 -18 18 -18 24 0 6 1 8 3 6 1 -2 9 -13 17 -24z m1070 -6
c15 -28 5 -23 -15 7 -9 15 -12 23 -6 20 6 -4 16 -16 21 -27z m457 9 c-3 -8 -6
-5 -6 6 -1 11 2 17 5 13 3 -3 4 -12 1 -19z m2680 -10 c-3 -7 -5 -2 -5 12 0 14
2 19 5 13 2 -7 2 -19 0 -25z m134 15 c13 -16 12 -17 -3 -4 -10 7 -18 15 -18
17 0 8 8 3 21 -13z m-1138 -67 c3 -30 1 -43 -4 -35 -5 8 -8 34 -8 59 1 53 6
44 12 -24z m61 27 c9 -18 14 -33 12 -33 -6 0 -36 55 -36 66 0 11 5 3 24 -33z
m733 31 c-3 -3 -12 -4 -19 -1 -8 3 -5 6 6 6 11 1 17 -2 13 -5z m126 -1 c-13
-2 -35 -2 -50 0 -16 2 -5 4 22 4 28 0 40 -2 28 -4z m-2643 -11 c0 -5 -7 -17
-15 -28 -14 -18 -14 -17 -4 9 12 27 19 34 19 19z m2966 -20 c-17 -16 -18 -16
-5 5 7 12 15 20 18 17 3 -2 -3 -12 -13 -22z m-3749 -4 c-3 -8 -6 -5 -6 6 -1
11 2 17 5 13 3 -3 4 -12 1 -19z m3470 0 c-3 -8 -6 -5 -6 6 -1 11 2 17 5 13 3
-3 4 -12 1 -19z m148 -7 c-6 -5 -25 10 -25 20 0 5 6 4 14 -3 8 -7 12 -15 11
-17z m-4162 4 c-3 -9 -8 -14 -10 -11 -3 3 -2 9 2 15 9 16 15 13 8 -4z m990 -2
c-3 -7 -6 -13 -8 -13 -2 0 -5 6 -8 13 -3 8 1 14 8 14 7 0 11 -6 8 -14z m3074
-50 c-2 -16 -4 -5 -4 22 0 28 2 40 4 28 2 -13 2 -35 0 -50z m-3820 35 c-3 -8
-6 -5 -6 6 -1 11 2 17 5 13 3 -3 4 -12 1 -19z m1953 -4 c0 -8 16 -38 36 -67
l37 -52 -7 -319 c-3 -176 -7 -320 -8 -321 -13 -10 -111 -35 -116 -30 -4 4 -7
66 -7 138 0 98 5 147 18 192 23 75 41 294 33 403 -3 51 -1 80 4 77 6 -4 10
-13 10 -21z m-1190 1 c0 -8 -4 -15 -10 -15 -5 0 -7 7 -4 15 4 8 8 15 10 15 2
0 4 -7 4 -15z m37 -7 c-3 -8 -6 -5 -6 6 -1 11 2 17 5 13 3 -3 4 -12 1 -19z
m350 -10 c-3 -7 -5 -2 -5 12 0 14 2 19 5 13 2 -7 2 -19 0 -25z m40 -5 c-3 -10
-5 -4 -5 12 0 17 2 24 5 18 2 -7 2 -21 0 -30z m2610 15 c-3 -8 -6 -5 -6 6 -1
11 2 17 5 13 3 -3 4 -12 1 -19z m-3530 -20 c-3 -7 -5 -2 -5 12 0 14 2 19 5 13
2 -7 2 -19 0 -25z m81 7 c-3 -3 -9 2 -12 12 -6 14 -5 15 5 6 7 -7 10 -15 7
-18z m2505 2 c12 -19 13 -24 2 -24 -8 0 -12 4 -9 9 3 4 0 8 -5 8 -6 0 -11 7
-11 15 0 21 5 19 23 -8z m1140 16 c-7 -2 -19 -2 -25 0 -7 3 -2 5 12 5 14 0 19
-2 13 -5z m-4143 -23 c6 -11 8 -20 6 -20 -3 0 -10 9 -16 20 -6 11 -8 20 -6 20
3 0 10 -9 16 -20z m457 -2 c-3 -8 -6 -5 -6 6 -1 11 2 17 5 13 3 -3 4 -12 1
-19z m743 18 c0 -2 -8 -10 -17 -17 -16 -13 -17 -12 -4 4 13 16 21 21 21 13z
m-1093 -43 c-3 -10 -5 -4 -5 12 0 17 2 24 5 18 2 -7 2 -21 0 -30z m40 5 c-3
-8 -6 -5 -6 6 -1 11 2 17 5 13 3 -3 4 -12 1 -19z m1083 19 c0 -2 -10 -12 -22
-23 l-23 -19 19 23 c18 21 26 27 26 19z m-323 -29 c-3 -8 -6 -5 -6 6 -1 11 2
17 5 13 3 -3 4 -12 1 -19z m383 13 c0 -6 -11 -23 -25 -38 l-26 -28 23 37 c25
40 28 43 28 29z m132 -185 l5 -60 -22 28 c-13 16 -33 50 -45 75 l-22 47 34 54
33 53 7 -69 c3 -38 8 -96 10 -128z m2469 171 c-10 -9 -11 -8 -5 6 3 10 9 15
12 12 3 -3 0 -11 -7 -18z m-3436 -56 c-16 -15 -17 -14 -6 6 6 12 12 32 12 45
2 18 3 17 6 -6 3 -18 -1 -34 -12 -45z m-524 24 c-18 -8 -36 -15 -40 -15 -13 1
45 29 59 29 8 0 0 -6 -19 -14z m154 -45 c-8 -25 -13 -34 -10 -20 3 14 5 38 5
55 0 19 3 26 10 19 7 -7 5 -25 -5 -54z m128 12 c-7 -7 -13 -24 -13 -36 0 -13
-6 -23 -14 -23 -12 0 -11 8 5 38 10 21 19 46 20 56 0 16 1 16 8 -2 5 -12 3
-25 -6 -33z m3667 44 c0 -6 -66 -46 -76 -46 -5 0 9 11 31 25 43 26 45 27 45
21z m24 -17 c-10 -11 -28 -25 -39 -31 -11 -6 -4 4 15 20 41 36 51 41 24 11z
m-3916 -20 c-3 -8 -7 -3 -11 10 -4 17 -3 21 5 13 5 -5 8 -16 6 -23z m39 9 c-3
-8 -6 -5 -6 6 -1 11 2 17 5 13 3 -3 4 -12 1 -19z m1270 4 c-10 -10 -14 -22
-10 -27 5 -4 2 -5 -5 -1 -11 6 -10 12 4 27 9 10 19 19 22 19 3 0 -2 -8 -11
-18z m-1417 -9 c0 -3 -6 -3 -14 0 -7 3 -20 0 -27 -6 -11 -10 -11 -9 0 5 11 15
41 15 41 1z m1450 2 c-7 -8 -17 -15 -23 -15 -6 0 -2 7 9 15 25 19 30 19 14 0z
m2651 -23 c-6 -2 -8 -9 -5 -14 4 -7 2 -8 -4 -4 -9 5 -8 12 1 27 7 12 13 15 16
7 2 -7 -1 -14 -8 -16z m-3044 -19 c-3 -10 -5 -4 -5 12 0 17 2 24 5 18 2 -7 2
-21 0 -30z m1950 15 c-3 -8 -6 -5 -6 6 -1 11 2 17 5 13 3 -3 4 -12 1 -19z
m1047 8 c-3 -8 -13 -17 -22 -21 -13 -5 -13 -2 3 15 21 24 26 25 19 6z m-3897
-33 c-3 -10 -5 -4 -5 12 0 17 2 24 5 18 2 -7 2 -21 0 -30z m1150 31 c-3 -3
-12 -4 -19 -1 -8 3 -5 6 6 6 11 1 17 -2 13 -5z m38 -30 c-40 -18 -58 -21 -90
-14 l-40 8 50 1 c31 1 61 9 79 20 17 11 34 17 40 13 6 -3 -12 -16 -39 -28z
m1044 -56 c0 -10 -3 -18 -9 -18 -5 0 -9 21 -9 48 1 42 2 44 9 17 4 -16 8 -38
9 -47z m608 40 c-3 -8 -6 -5 -6 6 -1 11 2 17 5 13 3 -3 4 -12 1 -19z m983 2
c-6 -11 -13 -20 -16 -20 -2 0 0 9 6 20 6 11 13 20 16 20 2 0 0 -9 -6 -20z
m-3606 -6 c3 -8 2 -12 -4 -9 -17 11 -11 -11 12 -41 16 -20 17 -25 5 -15 -25
20 -38 47 -31 65 8 20 10 20 18 0z m91 -42 c11 -6 14 -12 7 -12 -7 0 -27 15
-45 33 -18 17 -21 22 -7 11 14 -12 34 -26 45 -32z m3545 39 c-5 -11 -15 -23
-21 -27 -6 -3 -3 5 6 20 20 30 30 35 15 7z m-3760 -4 c0 -1 -30 -32 -67 -67
-55 -54 -59 -56 -23 -15 24 28 48 52 52 53 5 2 5 9 2 14 -4 6 -2 8 4 4 6 -3
13 -2 17 4 6 9 15 14 15 7z m796 -16 c-4 -5 -25 -24 -49 -42 l-42 -32 45 44
c42 41 60 53 46 30z m202 12 c-15 -2 -42 -2 -60 0 -18 2 -6 4 27 4 33 0 48 -2
33 -4z m-884 -63 c11 -14 6 -11 -11 7 -18 18 -33 38 -33 45 0 7 6 4 12 -7 6
-11 20 -31 32 -45z m263 28 c-3 -8 -6 -5 -6 6 -1 11 2 17 5 13 3 -3 4 -12 1
-19z m2423 -45 c0 -2 -16 8 -35 23 -19 14 -35 30 -35 34 0 5 16 -6 35 -23 19
-17 35 -32 35 -34z m-2530 47 c0 -5 -5 -10 -11 -10 -5 0 -7 5 -4 10 3 6 8 10
11 10 2 0 4 -4 4 -10z m543 -14 c-10 -13 -20 -22 -22 -20 -4 4 29 44 36 44 2
0 -4 -11 -14 -24z m2112 -39 c6 -6 -5 -1 -23 9 -18 10 -41 28 -50 38 -15 18
47 -23 73 -47z m864 37 c-13 -14 -33 -30 -44 -36 -11 -6 -2 6 20 25 47 43 58
48 24 11z m-3943 -22 c-9 -17 -20 -33 -25 -36 -5 -4 0 12 12 33 25 46 36 48
13 3z m363 1 c2 -2 -9 -3 -25 -2 -16 0 -23 3 -16 6 6 2 9 10 5 16 -4 7 2 5 13
-3 10 -8 21 -16 23 -17z m3355 18 c4 -5 -3 -7 -14 -4 -23 6 -26 13 -6 13 8 0
17 -4 20 -9z m-1428 -157 c-1 -98 -5 -149 -12 -151 -7 -2 -10 17 -9 59 2 35 3
105 4 156 1 51 5 91 9 88 5 -3 8 -71 8 -152z m-1861 136 c-3 -5 -18 -9 -33 -9
l-27 1 30 8 c17 4 31 8 33 9 2 0 0 -3 -3 -9z m585 5 c0 -2 -10 -9 -22 -15 -22
-11 -22 -10 -4 4 21 17 26 19 26 11z m1867 -17 c-3 -8 -6 -5 -6 6 -1 11 2 17
5 13 3 -3 4 -12 1 -19z m390 -40 c-2 -13 -4 -3 -4 22 0 25 2 35 4 23 2 -13 2
-33 0 -45z m488 42 c10 -11 16 -20 13 -20 -3 0 -13 9 -23 20 -10 11 -16 20
-13 20 3 0 13 -9 23 -20z m-3279 -28 c-4 -3 -12 0 -19 8 -9 10 -9 11 1 6 7 -5
12 -1 13 11 1 17 2 17 6 0 3 -10 2 -21 -1 -25z m159 26 c-11 -6 -27 -16 -35
-22 -9 -6 -5 -1 8 12 13 12 28 22 35 22 7 0 3 -6 -8 -12z m2276 -5 c13 -16 12
-17 -3 -4 -10 7 -18 15 -18 17 0 8 8 3 21 -13z m416 -5 c-3 -8 -6 -5 -6 6 -1
11 2 17 5 13 3 -3 4 -12 1 -19z m-2367 -4 c0 -2 -9 -4 -21 -4 -11 0 -18 4 -14
10 5 8 35 3 35 -6z m2021 -1 c13 -16 12 -17 -3 -4 -10 7 -18 15 -18 17 0 8 8
3 21 -13z m-2675 -8 c-36 -19 -45 -19 -20 0 10 8 26 14 34 15 8 0 2 -7 -14
-15z m554 12 c0 -2 -10 -12 -22 -23 l-23 -19 19 23 c18 21 26 27 26 19z m2514
-13 c3 -8 2 -12 -4 -9 -6 3 -10 10 -10 16 0 14 7 11 14 -7z m-2654 -4 c8 -5
11 -10 5 -10 -5 0 -17 5 -25 10 -8 5 -10 10 -5 10 6 0 17 -5 25 -10z m2350
-130 c36 -24 57 -40 47 -37 -31 11 -131 83 -182 132 l-50 47 60 -50 c33 -27
89 -69 125 -92z m-190 121 c0 -6 -4 -13 -10 -16 -5 -3 -10 1 -10 9 0 9 5 16
10 16 6 0 10 -4 10 -9z m170 -28 c0 -7 -39 17 -46 28 -3 6 5 3 20 -6 14 -10
26 -19 26 -22z m698 -8 c-1 -19 -3 -33 -6 -31 -7 8 -8 74 0 70 4 -3 7 -20 6
-39z m70 38 c-10 -2 -26 -2 -35 0 -10 3 -2 5 17 5 19 0 27 -2 18 -5z m-3558
-7 c0 -2 -7 -6 -15 -10 -8 -3 -15 -1 -15 4 0 6 7 10 15 10 8 0 15 -2 15 -4z
m300 -11 c-7 -8 -17 -15 -23 -15 -6 0 -2 7 9 15 25 19 30 19 14 0z m3147 -17
c-3 -7 -5 -2 -5 12 0 14 2 19 5 13 2 -7 2 -19 0 -25z m-2904 15 c-7 -2 -19 -2
-25 0 -7 3 -2 5 12 5 14 0 19 -2 13 -5z m2686 -78 c13 -4 20 -9 18 -12 -9 -9
-62 25 -97 63 l-35 38 46 -41 c25 -22 56 -44 68 -48z m-2969 58 c0 -3 -6 -3
-14 0 -7 3 -20 0 -27 -6 -11 -10 -11 -9 0 5 11 15 41 15 41 1z m2540 -28 c0
-3 -18 4 -40 15 -22 11 -40 23 -40 25 0 3 18 -4 40 -15 22 -11 40 -23 40 -25z
m567 23 c-3 -8 -6 -5 -6 6 -1 11 2 17 5 13 3 -3 4 -12 1 -19z m-741 -20 l19
-23 -25 20 c-14 11 -27 21 -29 22 -2 2 0 3 6 3 5 0 18 -10 29 -22z m39 2 c10
-11 16 -20 13 -20 -3 0 -13 9 -23 20 -10 11 -16 20 -13 20 3 0 13 -9 23 -20z
m475 -15 c19 -19 32 -35 29 -35 -3 0 -20 16 -39 35 -19 19 -32 35 -29 35 3 0
20 -16 39 -35z m-270 15 c8 -5 11 -10 5 -10 -5 0 -17 5 -25 10 -8 5 -10 10 -5
10 6 0 17 -5 25 -10z m600 -4 c0 -2 -8 -10 -17 -17 -16 -13 -17 -12 -4 4 13
16 21 21 21 13z m-95 -16 c-3 -5 -12 -10 -18 -10 -7 0 -6 4 3 10 19 12 23 12
15 0z m-764 -17 c13 -16 12 -17 -3 -4 -17 13 -22 21 -14 21 2 0 10 -8 17 -17z
m64 -3 c10 -11 16 -20 13 -20 -3 0 -13 9 -23 20 -10 11 -16 20 -13 20 3 0 13
-9 23 -20z m40 0 c10 -11 16 -20 13 -20 -3 0 -13 9 -23 20 -10 11 -16 20 -13
20 3 0 13 -9 23 -20z m333 -26 c-3 -14 -5 -12 -10 9 -3 19 -2 25 4 19 6 -6 8
-18 6 -28z m85 -23 c-2 -3 -18 10 -36 29 l-32 34 36 -30 c20 -16 34 -31 32
-33z m-546 17 c-3 -8 -6 -5 -6 6 -1 11 2 17 5 13 3 -3 4 -12 1 -19z m137 -47
l50 -31 -40 1 c-28 0 -34 3 -20 8 17 7 15 10 -16 29 -19 12 -43 32 -54 44
l-19 23 25 -21 c14 -12 47 -36 74 -53z m526 31 c-9 -3 -70 25 -70 33 0 2 18
-4 40 -13 21 -9 35 -18 30 -20z m123 21 c-7 -2 -21 -2 -30 0 -10 3 -4 5 12 5
17 0 24 -2 18 -5z m-592 -20 c13 -16 12 -17 -3 -4 -17 13 -22 21 -14 21 2 0
10 -8 17 -17z m-11 -19 c0 -2 -9 0 -20 6 -11 6 -20 13 -20 16 0 2 9 0 20 -6
11 -6 20 -13 20 -16z m588 1 c3 -3 -13 -5 -36 -5 -22 0 -43 4 -46 9 -6 9 73 5
82 -4z m-717 -24 c15 -6 18 -10 8 -10 -9 -1 -25 7 -36 17 -10 9 -14 14 -8 10
6 -4 22 -12 36 -17z m164 1 c-3 -3 -11 0 -18 7 -9 10 -8 11 6 5 10 -3 15 -9
12 -12z m152 2 c-3 -3 -12 -4 -19 -1 -8 3 -5 6 6 6 11 1 17 -2 13 -5z m-67
-19 c47 -18 27 -18 -30 -1 -25 8 -36 15 -25 15 11 0 36 -7 55 -14z m133 8 c-7
-2 -19 -2 -25 0 -7 3 -2 5 12 5 14 0 19 -2 13 -5z m-943 -209 c0 -8 -4 -12
-10 -9 -5 3 -10 10 -10 16 0 5 5 9 10 9 6 0 10 -7 10 -16z m-60 -34 c0 -5 -4
-10 -10 -10 -5 0 -10 5 -10 10 0 6 5 10 10 10 6 0 10 -4 10 -10z"/>
<path d="M2656 3079 c-8 -39 -8 -54 0 -46 10 10 22 77 14 77 -4 0 -10 -14 -14
-31z"/>
<path d="M2948 3071 c-54 -10 -101 -21 -105 -26 -5 -4 3 -5 17 -2 14 3 70 13
125 22 54 9 101 18 104 20 8 8 -41 3 -141 -14z"/>
<path d="M2591 3023 c1 -93 17 -111 18 -20 1 45 -3 77 -9 77 -6 0 -10 -25 -9
-57z"/>
<path d="M2686 3024 c-20 -51 24 -188 72 -226 14 -11 14 -9 -2 16 -57 89 -61
100 -60 164 2 65 0 72 -10 46z"/>
<path d="M2416 2930 c3 -56 1 -106 -5 -122 -6 -16 -7 -28 -1 -28 24 0 31 135
10 210 -7 26 -8 10 -4 -60z"/>
<path d="M2155 2963 c-183 -38 -369 -102 -350 -121 2 -3 10 0 17 5 16 13 178
67 275 91 40 10 76 21 80 25 3 4 4 6 2 6 -2 -1 -13 -3 -24 -6z"/>
<path d="M2155 2924 c-22 -8 -56 -17 -75 -20 -40 -6 -259 -77 -287 -93 -38
-21 14 -22 77 -2 35 12 78 21 97 21 38 0 125 27 207 65 30 14 60 25 65 25 6 0
11 5 11 10 0 14 -48 11 -95 -6z"/>
<path d="M2780 2923 c0 -15 102 -70 175 -93 39 -13 87 -31 108 -42 20 -10 37
-14 37 -9 0 10 -68 40 -160 71 -36 12 -75 28 -87 36 -13 8 -34 21 -48 30 -14
9 -25 12 -25 7z"/>
<path d="M2245 2853 c-60 -91 -152 -172 -222 -193 -26 -8 -26 -8 -4 -9 34 -1
133 62 173 111 51 64 81 109 75 114 -2 2 -12 -8 -22 -23z"/>
<path d="M2720 2633 c100 -58 109 -83 60 -179 -34 -66 -34 -68 -20 -59 19 12
72 127 67 146 -3 11 0 19 7 19 23 0 149 -93 207 -153 32 -33 59 -56 59 -51 0
19 -148 152 -215 193 -39 24 -95 58 -125 77 -30 19 -61 34 -70 34 -8 0 5 -12
30 -27z"/>
<path d="M2377 2561 c-26 -27 -49 -61 -53 -75 -7 -31 21 -81 65 -114 41 -30
50 -28 12 4 -50 42 -73 80 -65 109 3 14 26 48 51 75 58 65 50 65 -10 1z"/>
<path d="M2703 2559 c-23 -7 -37 -21 -53 -54 -24 -49 -20 -65 14 -65 28 0 63
36 68 70 2 17 10 26 26 28 27 4 24 26 -4 29 -10 1 -33 -3 -51 -8z"/>
<path d="M2387 2489 c-17 -10 -18 -12 -1 -30 9 -10 20 -16 25 -13 5 3 26 -7
46 -21 40 -27 59 -30 82 -16 12 8 12 13 -3 36 -30 45 -108 68 -149 44z"/>
<path d="M2241 2390 c-22 -50 -41 -93 -41 -95 0 -10 -94 -162 -113 -182 -11
-13 -15 -23 -9 -23 27 0 109 137 177 295 10 22 24 52 32 68 7 15 10 27 5 27
-5 0 -28 -41 -51 -90z"/>
<path d="M2904 2329 c-7 -12 12 -29 33 -29 14 0 28 19 19 27 -3 3 -13 0 -23
-8 -15 -12 -16 -12 -10 4 7 19 -8 24 -19 6z"/>
<path d="M2300 2206 c0 -9 30 -14 35 -6 4 6 -3 10 -14 10 -12 0 -21 -2 -21 -4z"/>
<path d="M2280 2180 c0 -5 7 -10 16 -10 8 0 12 5 9 10 -3 6 -10 10 -16 10 -5
0 -9 -4 -9 -10z"/>
<path d="M2260 2160 c0 -6 7 -10 15 -10 8 0 15 2 15 4 0 2 -7 6 -15 10 -8 3
-15 1 -15 -4z"/>
<path d="M2235 2099 c-11 -17 1 -21 15 -4 8 9 8 15 2 15 -6 0 -14 -5 -17 -11z"/>
<path d="M2210 2040 c0 -5 7 -10 16 -10 8 0 12 5 9 10 -3 6 -10 10 -16 10 -5
0 -9 -4 -9 -10z"/>
<path d="M2206 2004 c-8 -22 -8 -24 7 -24 7 0 13 9 13 20 0 24 -11 26 -20 4z"/>
<path d="M2200 1944 c0 -8 5 -12 10 -9 6 3 10 10 10 16 0 5 -4 9 -10 9 -5 0
-10 -7 -10 -16z"/>
<path d="M2197 1913 c-4 -3 -7 -13 -7 -22 1 -13 3 -13 11 2 11 19 8 33 -4 20z"/>
<path d="M2485 1380 c10 -11 20 -20 22 -20 2 0 -1 9 -7 20 -6 11 -16 20 -22
20 -6 0 -3 -9 7 -20z"/>
<path d="M2460 1361 c0 -10 30 -24 37 -17 3 2 -5 9 -16 16 -12 6 -21 7 -21 1z"/>
<path d="M229 1437 c14 -18 51 -42 51 -33 0 3 -15 15 -32 27 -24 17 -29 18
-19 6z"/>
<path d="M2530 1282 c0 -5 9 -17 20 -27 23 -21 27 -4 4 19 -17 18 -24 20 -24
8z"/>
<path d="M1380 956 c0 -2 8 -10 18 -17 15 -13 16 -12 3 4 -13 16 -21 21 -21
13z"/>
<path d="M2656 1905 c4 -16 11 -39 15 -50 7 -18 8 -18 8 5 0 14 -6 36 -14 50
l-15 25 6 -30z"/>
<path d="M2585 1870 c3 -19 10 -39 15 -44 7 -7 7 -1 1 19 -17 54 -21 61 -16
25z"/>
<path d="M2616 1877 c3 -10 9 -15 12 -12 3 3 0 11 -7 18 -10 9 -11 8 -5 -6z"/>
<path d="M2901 1580 c0 -8 4 -22 9 -30 12 -18 12 -2 0 25 -6 13 -9 15 -9 5z"/>
<path d="M2935 1560 c3 -5 8 -10 11 -10 2 0 4 5 4 10 0 6 -5 10 -11 10 -5 0
-7 -4 -4 -10z"/>
<path d="M2888 1394 c-5 -4 -8 -16 -8 -28 0 -14 3 -17 11 -9 6 6 9 19 7 28 -1
9 -6 13 -10 9z"/>
</g>
</svg>
